G04 ================== begin FILE IDENTIFICATION RECORD ==================*
G04 Layout Name:  ZAHARIA_ANDREI.brd*
G04 Film Name:    FAB*
G04 File Format:  Gerber RS274X*
G04 File Origin:  Cadence Allegro 17.2-S025*
G04 Origin Date:  Sun Dec 14 21:38:47 2025*
G04 *
G04 Layer:  MANUFACTURING/XSECTION_CHART*
G04 Layer:  MANUFACTURING/NCLEGEND-1-2*
G04 Layer:  MANUFACTURING/NCDRILL_LEGEND*
G04 Layer:  MANUFACTURING/NCDRILL_FIGURE*
G04 Layer:  DRAWING FORMAT/DRAWING_ORIGIN*
G04 Layer:  BOARD GEOMETRY/DIMENSION*
G04 Layer:  BOARD GEOMETRY/DESIGN_OUTLINE*
G04 *
G04 Offset:    (0.0000 0.0000)*
G04 Mirror:    No*
G04 Mode:      Positive*
G04 Rotation:  0*
G04 FullContactRelief:  No*
G04 UndefLineWidth:     0.1250*
G04 ================== end FILE IDENTIFICATION RECORD ====================*
%FSLAX25Y25*MOIN*%
%IR0*IPPOS*OFA0.00000B0.00000*MIA0B0*SFA1.00000B1.00000*%
%AMMACRO10*
1,1,.004921,.019685,0.0*
20,1,.004921,.019685,0.0,.019386,-.003418,0.0*
1,1,.004921,.019386,-.003418*
20,1,.004921,.019386,-.003418,.018498,-.006733,0.0*
1,1,.004921,.018498,-.006733*
20,1,.004921,.018498,-.006733,.017048,-.009843,0.0*
1,1,.004921,.017048,-.009843*
20,1,.004921,.017048,-.009843,.01508,-.012653,0.0*
1,1,.004921,.01508,-.012653*
20,1,.004921,.01508,-.012653,.012653,-.01508,0.0*
1,1,.004921,.012653,-.01508*
20,1,.004921,.012653,-.01508,.009843,-.017048,0.0*
1,1,.004921,.009843,-.017048*
20,1,.004921,.009843,-.017048,.006733,-.018498,0.0*
1,1,.004921,.006733,-.018498*
20,1,.004921,.006733,-.018498,.003418,-.019386,0.0*
1,1,.004921,.003418,-.019386*
20,1,.004921,.003418,-.019386,0.0,-.019685,0.0*
1,1,.004921,0.0,-.019685*
20,1,.004921,0.0,-.019685,-.003418,-.019386,0.0*
1,1,.004921,-.003418,-.019386*
20,1,.004921,-.003418,-.019386,-.006733,-.018498,0.0*
1,1,.004921,-.006733,-.018498*
20,1,.004921,-.006733,-.018498,-.009843,-.017048,0.0*
1,1,.004921,-.009843,-.017048*
20,1,.004921,-.009843,-.017048,-.012653,-.01508,0.0*
1,1,.004921,-.012653,-.01508*
20,1,.004921,-.012653,-.01508,-.01508,-.012653,0.0*
1,1,.004921,-.01508,-.012653*
20,1,.004921,-.01508,-.012653,-.017048,-.009843,0.0*
1,1,.004921,-.017048,-.009843*
20,1,.004921,-.017048,-.009843,-.018498,-.006733,0.0*
1,1,.004921,-.018498,-.006733*
20,1,.004921,-.018498,-.006733,-.019386,-.003418,0.0*
1,1,.004921,-.019386,-.003418*
20,1,.004921,-.019386,-.003418,-.019685,0.0,0.0*
1,1,.004921,-.019685,0.0*
20,1,.004921,-.019685,0.0,-.019386,.003418,0.0*
1,1,.004921,-.019386,.003418*
20,1,.004921,-.019386,.003418,-.018498,.006733,0.0*
1,1,.004921,-.018498,.006733*
20,1,.004921,-.018498,.006733,-.017048,.009843,0.0*
1,1,.004921,-.017048,.009843*
20,1,.004921,-.017048,.009843,-.01508,.012653,0.0*
1,1,.004921,-.01508,.012653*
20,1,.004921,-.01508,.012653,-.012653,.01508,0.0*
1,1,.004921,-.012653,.01508*
20,1,.004921,-.012653,.01508,-.009843,.017048,0.0*
1,1,.004921,-.009843,.017048*
20,1,.004921,-.009843,.017048,-.006733,.018498,0.0*
1,1,.004921,-.006733,.018498*
20,1,.004921,-.006733,.018498,-.003418,.019386,0.0*
1,1,.004921,-.003418,.019386*
20,1,.004921,-.003418,.019386,0.0,.019685,0.0*
1,1,.004921,0.0,.019685*
20,1,.004921,0.0,.019685,.003418,.019386,0.0*
1,1,.004921,.003418,.019386*
20,1,.004921,.003418,.019386,.006733,.018498,0.0*
1,1,.004921,.006733,.018498*
20,1,.004921,.006733,.018498,.009843,.017048,0.0*
1,1,.004921,.009843,.017048*
20,1,.004921,.009843,.017048,.012653,.01508,0.0*
1,1,.004921,.012653,.01508*
20,1,.004921,.012653,.01508,.01508,.012653,0.0*
1,1,.004921,.01508,.012653*
20,1,.004921,.01508,.012653,.017048,.009843,0.0*
1,1,.004921,.017048,.009843*
20,1,.004921,.017048,.009843,.018498,.006733,0.0*
1,1,.004921,.018498,.006733*
20,1,.004921,.018498,.006733,.019386,.003418,0.0*
1,1,.004921,.019386,.003418*
20,1,.004921,.019386,.003418,.019685,0.0,0.0*
1,1,.004921,.019685,0.0*
1,1,.004921,.009843,0.0*
20,1,.004921,.009843,0.0,-.009843,0.0,0.0*
1,1,.004921,-.009843,0.0*
1,1,.004921,0.0,.009843*
20,1,.004921,0.0,.009843,0.0,-.009843,0.0*
1,1,.004921,0.0,-.009843*
%
%ADD10MACRO10*%
%AMMACRO11*
1,1,.004921,.025,0.0*
20,1,.004921,.025,0.0,-.025,0.0,0.0*
1,1,.004921,-.025,0.0*
1,1,.004921,0.0,.025*
20,1,.004921,0.0,.025,0.0,-.025,0.0*
1,1,.004921,0.0,-.025*
%
%ADD11MACRO11*%
%ADD12C,.003937*%
%ADD13C,.005906*%
%ADD14C,.004921*%
G75*
%LPD*%
G75*
G36*
G01X267249Y191681D02*
Y189414D01*
X269749D01*
Y-7626D01*
X267249D01*
Y-9893D01*
X282249D01*
Y-7626D01*
X279749D01*
Y189414D01*
X282249D01*
Y191681D01*
X267249D01*
G37*
G36*
G01X247249Y-9893D02*
Y-7625D01*
X307249D01*
Y-9893D01*
X247249D01*
G37*
G36*
G01Y189414D02*
Y191681D01*
X307249D01*
Y189414D01*
X247249D01*
G37*
G54D10*
X16101Y-66417D03*
X16344Y106029D03*
X49921Y31654D03*
X35669D03*
X41181Y69331D03*
X44331Y51457D03*
X35709Y51693D03*
X56861Y69331D03*
X77913Y99567D03*
X80394Y68150D03*
X104724Y84685D03*
X80394Y92795D03*
X88110Y122598D03*
Y109764D03*
X114646Y58504D03*
X120945Y43701D03*
X138110Y52992D03*
X115315Y84685D03*
X146710Y112441D03*
G54D11*
X0Y0D03*
G54D12*
G01X1697Y-60512D02*
Y-56575D01*
X3193D01*
G01X2642Y-58478D02*
X1697D01*
G01X7435Y-56575D02*
X8380D01*
G01X7907D02*
Y-60512D01*
G01X7435D02*
X8380D01*
G01X13606Y-58543D02*
X14393D01*
Y-59724D01*
X14157Y-60118D01*
X13881Y-60381D01*
X13488Y-60512D01*
X13094Y-60381D01*
X12819Y-60118D01*
X12582Y-59724D01*
X12425Y-59265D01*
X12346Y-58740D01*
Y-58281D01*
X12425Y-57887D01*
X12582Y-57428D01*
X12819Y-57034D01*
X13055Y-56772D01*
X13370Y-56575D01*
X13645D01*
X13960Y-56706D01*
X14196Y-56969D01*
G01X17966Y-56575D02*
Y-59396D01*
X18123Y-59987D01*
X18438Y-60381D01*
X18832Y-60512D01*
X19226Y-60381D01*
X19541Y-59987D01*
X19698Y-59396D01*
Y-56575D01*
G01X23507Y-60512D02*
Y-56575D01*
X24491D01*
X24806Y-56772D01*
X25003Y-57034D01*
X25081Y-57559D01*
X25003Y-58084D01*
X24767Y-58412D01*
X24491Y-58609D01*
X23507D01*
G01X24491D02*
X25081Y-60512D01*
G01X30544D02*
X28969D01*
Y-56575D01*
X30544D01*
G01X29914Y-58478D02*
X28969D01*
G01X33422Y-52638D02*
X34406Y-48701D01*
X35391Y-52638D01*
G01X35036Y-51260D02*
X33776D01*
G01X39081Y-48701D02*
Y-52638D01*
X40656D01*
G01X44543Y-48701D02*
Y-52638D01*
X46118D01*
G01X55389Y-48701D02*
Y-51522D01*
X55546Y-52113D01*
X55861Y-52507D01*
X56255Y-52638D01*
X56649Y-52507D01*
X56964Y-52113D01*
X57121Y-51522D01*
Y-48701D01*
G01X60812Y-52638D02*
Y-48701D01*
X62623Y-52638D01*
Y-48701D01*
G01X66707D02*
X67652D01*
G01X67180D02*
Y-52638D01*
G01X66707D02*
X67652D01*
G01X72642Y-48701D02*
Y-52638D01*
G01X71736Y-48701D02*
X73547D01*
G01X77277Y-52113D02*
X77592Y-52441D01*
X77946Y-52638D01*
X78261D01*
X78576Y-52441D01*
X78813Y-52113D01*
X78931Y-51654D01*
X78852Y-51194D01*
X78655Y-50800D01*
X78301Y-50538D01*
X77828Y-50407D01*
X77553Y-50144D01*
X77435Y-49685D01*
X77513Y-49226D01*
X77710Y-48898D01*
X77986Y-48701D01*
X78261D01*
X78537Y-48832D01*
X78773Y-49160D01*
G01X88044Y-52638D02*
X89028Y-48701D01*
X90013Y-52638D01*
G01X89658Y-51260D02*
X88398D01*
G01X93703Y-52638D02*
Y-48701D01*
X94687D01*
X95002Y-48898D01*
X95199Y-49160D01*
X95278Y-49685D01*
X95199Y-50210D01*
X94963Y-50538D01*
X94687Y-50735D01*
X93703D01*
G01X94687D02*
X95278Y-52638D01*
G01X100740D02*
X99165D01*
Y-48701D01*
X100740D01*
G01X100110Y-50604D02*
X99165D01*
G01X110405Y-48701D02*
X111350D01*
G01X110877D02*
Y-52638D01*
G01X110405D02*
X111350D01*
G01X115434D02*
Y-48701D01*
X117245Y-52638D01*
Y-48701D01*
G01X126240Y-52638D02*
Y-48701D01*
X127264Y-51981D01*
X128287Y-48701D01*
Y-52638D01*
G01X132254Y-48701D02*
X133198D01*
G01X132726D02*
Y-52638D01*
G01X132254D02*
X133198D01*
G01X137401Y-48701D02*
Y-52638D01*
X138976D01*
G01X142863Y-48701D02*
Y-52638D01*
X144438D01*
G01X148640Y-48701D02*
X149585D01*
G01X149113D02*
Y-52638D01*
G01X148640D02*
X149585D01*
G01X153551D02*
Y-48701D01*
X154575Y-51981D01*
X155598Y-48701D01*
Y-52638D01*
G01X160824D02*
X159250D01*
Y-48701D01*
X160824D01*
G01X160194Y-50604D02*
X159250D01*
G01X165499Y-48701D02*
Y-52638D01*
G01X164594Y-48701D02*
X166405D01*
G01X171749Y-52638D02*
X170174D01*
Y-48701D01*
X171749D01*
G01X171119Y-50604D02*
X170174D01*
G01X175636Y-52638D02*
Y-48701D01*
X176620D01*
X176935Y-48898D01*
X177132Y-49160D01*
X177211Y-49685D01*
X177132Y-50210D01*
X176896Y-50538D01*
X176620Y-50735D01*
X175636D01*
G01X176620D02*
X177211Y-52638D01*
G01X181059Y-52113D02*
X181374Y-52441D01*
X181728Y-52638D01*
X182043D01*
X182358Y-52441D01*
X182594Y-52113D01*
X182713Y-51654D01*
X182634Y-51194D01*
X182437Y-50800D01*
X182083Y-50538D01*
X181610Y-50407D01*
X181335Y-50144D01*
X181217Y-49685D01*
X181295Y-49226D01*
X181492Y-48898D01*
X181768Y-48701D01*
X182043D01*
X182319Y-48832D01*
X182555Y-49160D01*
G01X39002Y-27047D02*
Y-23110D01*
X39790D01*
X40105Y-23307D01*
X40341Y-23570D01*
X40538Y-23963D01*
X40695Y-24423D01*
X40735Y-25079D01*
X40695Y-25735D01*
X40538Y-26194D01*
X40341Y-26588D01*
X40105Y-26850D01*
X39790Y-27047D01*
X39002D01*
G01X44543D02*
Y-23110D01*
X45528D01*
X45843Y-23307D01*
X46039Y-23570D01*
X46118Y-24094D01*
X46039Y-24619D01*
X45803Y-24948D01*
X45528Y-25144D01*
X44543D01*
G01X45528D02*
X46118Y-27047D01*
G01X50320Y-23110D02*
X51265D01*
G01X50793D02*
Y-27047D01*
G01X50320D02*
X51265D01*
G01X55468Y-23110D02*
Y-27047D01*
X57043D01*
G01X60930Y-23110D02*
Y-27047D01*
X62505D01*
G01X73508Y-23438D02*
X73272Y-23241D01*
X72996Y-23110D01*
X72681D01*
X72327Y-23307D01*
X72051Y-23635D01*
X71854Y-24029D01*
X71697Y-24685D01*
X71657Y-25276D01*
X71736Y-25866D01*
X71854Y-26260D01*
X72091Y-26654D01*
X72366Y-26916D01*
X72642Y-27047D01*
X72917D01*
X73193Y-26916D01*
X73429Y-26719D01*
X73626Y-26457D01*
G01X77277Y-27047D02*
Y-23110D01*
G01X78931D02*
Y-27047D01*
G01Y-25079D02*
X77277D01*
G01X82582Y-27047D02*
X83566Y-23110D01*
X84550Y-27047D01*
G01X84196Y-25669D02*
X82936D01*
G01X88241Y-27047D02*
Y-23110D01*
X89225D01*
X89540Y-23307D01*
X89737Y-23570D01*
X89816Y-24094D01*
X89737Y-24619D01*
X89501Y-24948D01*
X89225Y-25144D01*
X88241D01*
G01X89225D02*
X89816Y-27047D01*
G01X94491Y-23110D02*
Y-27047D01*
G01X93585Y-23110D02*
X95396D01*
G01X99953Y-27178D02*
X99874Y-27113D01*
Y-26981D01*
X99953Y-26916D01*
X100031Y-26981D01*
Y-27113D01*
X99953Y-27178D01*
G01Y-25407D02*
X99874Y-25341D01*
Y-25210D01*
X99953Y-25144D01*
X100031Y-25210D01*
Y-25341D01*
X99953Y-25407D01*
G01X110877Y-23110D02*
Y-27047D01*
G01X109972Y-23110D02*
X111783D01*
G01X116339Y-27047D02*
X116024Y-26981D01*
X115749Y-26719D01*
X115513Y-26326D01*
X115355Y-25866D01*
X115276Y-25341D01*
Y-24816D01*
X115355Y-24291D01*
X115513Y-23832D01*
X115749Y-23438D01*
X116024Y-23176D01*
X116339Y-23110D01*
X116654Y-23176D01*
X116930Y-23438D01*
X117166Y-23832D01*
X117324Y-24291D01*
X117402Y-24816D01*
Y-25341D01*
X117324Y-25866D01*
X117166Y-26326D01*
X116930Y-26719D01*
X116654Y-26981D01*
X116339Y-27047D01*
G01X121014D02*
Y-23110D01*
X121959D01*
X122274Y-23307D01*
X122510Y-23767D01*
X122589Y-24291D01*
X122510Y-24816D01*
X122313Y-25210D01*
X121959Y-25407D01*
X121014D01*
G01X132726Y-23110D02*
Y-27047D01*
G01X132175Y-24423D02*
X133277D01*
G01X138188Y-27047D02*
X137952Y-26981D01*
X137716Y-26719D01*
X137558Y-26260D01*
X137480Y-25735D01*
X137558Y-25210D01*
X137716Y-24751D01*
X137952Y-24488D01*
X138188Y-24423D01*
X138424Y-24488D01*
X138661Y-24751D01*
X138818Y-25210D01*
X138857Y-25735D01*
X138818Y-26260D01*
X138661Y-26719D01*
X138424Y-26981D01*
X138188Y-27047D01*
G01X149428Y-24948D02*
X149585Y-24751D01*
X149703Y-24423D01*
X149782Y-23963D01*
X149703Y-23570D01*
X149546Y-23307D01*
X149270Y-23110D01*
X148207D01*
Y-27047D01*
X149506D01*
X149782Y-26785D01*
X149939Y-26391D01*
X150018Y-25932D01*
X149939Y-25472D01*
X149703Y-25079D01*
X149428Y-24948D01*
X148207D01*
G01X154575Y-27047D02*
X154260Y-26981D01*
X153984Y-26719D01*
X153748Y-26326D01*
X153591Y-25866D01*
X153512Y-25341D01*
Y-24816D01*
X153591Y-24291D01*
X153748Y-23832D01*
X153984Y-23438D01*
X154260Y-23176D01*
X154575Y-23110D01*
X154890Y-23176D01*
X155165Y-23438D01*
X155402Y-23832D01*
X155559Y-24291D01*
X155638Y-24816D01*
Y-25341D01*
X155559Y-25866D01*
X155402Y-26326D01*
X155165Y-26719D01*
X154890Y-26981D01*
X154575Y-27047D01*
G01X160037Y-23110D02*
Y-27047D01*
G01X159131Y-23110D02*
X160943D01*
G01X165499D02*
Y-27047D01*
G01X164594Y-23110D02*
X166405D01*
G01X170961Y-27047D02*
X170646Y-26981D01*
X170371Y-26719D01*
X170135Y-26326D01*
X169977Y-25866D01*
X169898Y-25341D01*
Y-24816D01*
X169977Y-24291D01*
X170135Y-23832D01*
X170371Y-23438D01*
X170646Y-23176D01*
X170961Y-23110D01*
X171276Y-23176D01*
X171552Y-23438D01*
X171788Y-23832D01*
X171946Y-24291D01*
X172024Y-24816D01*
Y-25341D01*
X171946Y-25866D01*
X171788Y-26326D01*
X171552Y-26719D01*
X171276Y-26981D01*
X170961Y-27047D01*
G01X175400D02*
Y-23110D01*
X176424Y-26391D01*
X177447Y-23110D01*
Y-27047D01*
G01X48495Y-60512D02*
Y-56575D01*
X49991D01*
G01X49440Y-58478D02*
X48495D01*
G01X54233Y-56575D02*
X55178D01*
G01X54705D02*
Y-60512D01*
G01X54233D02*
X55178D01*
G01X59262D02*
Y-56575D01*
X61073Y-60512D01*
Y-56575D01*
G01X65157D02*
X66102D01*
G01X65630D02*
Y-60512D01*
G01X65157D02*
X66102D01*
G01X70265Y-59987D02*
X70580Y-60315D01*
X70934Y-60512D01*
X71249D01*
X71564Y-60315D01*
X71800Y-59987D01*
X71919Y-59528D01*
X71840Y-59069D01*
X71643Y-58674D01*
X71289Y-58412D01*
X70816Y-58281D01*
X70541Y-58019D01*
X70422Y-57559D01*
X70501Y-57100D01*
X70698Y-56772D01*
X70974Y-56575D01*
X71249D01*
X71525Y-56706D01*
X71761Y-57034D01*
G01X75727Y-60512D02*
Y-56575D01*
G01X77381D02*
Y-60512D01*
G01Y-58543D02*
X75727D01*
G01X82804Y-60512D02*
X81229D01*
Y-56575D01*
X82804D01*
G01X82174Y-58478D02*
X81229D01*
G01X86612Y-60512D02*
Y-56575D01*
X87400D01*
X87715Y-56772D01*
X87951Y-57034D01*
X88148Y-57428D01*
X88305Y-57887D01*
X88344Y-58543D01*
X88305Y-59200D01*
X88148Y-59659D01*
X87951Y-60053D01*
X87715Y-60315D01*
X87400Y-60512D01*
X86612D01*
G01X91759Y-61824D02*
X94122D01*
G01X97576Y-59987D02*
X97891Y-60315D01*
X98245Y-60512D01*
X98560D01*
X98875Y-60315D01*
X99111Y-59987D01*
X99230Y-59528D01*
X99151Y-59069D01*
X98954Y-58674D01*
X98600Y-58412D01*
X98127Y-58281D01*
X97852Y-58019D01*
X97733Y-57559D01*
X97812Y-57100D01*
X98009Y-56772D01*
X98285Y-56575D01*
X98560D01*
X98836Y-56706D01*
X99072Y-57034D01*
G01X103393Y-56575D02*
X104337D01*
G01X103865D02*
Y-60512D01*
G01X103393D02*
X104337D01*
G01X108579Y-56575D02*
X110075D01*
X108579Y-60512D01*
X110075D01*
G01X115577D02*
X114002D01*
Y-56575D01*
X115577D01*
G01X114947Y-58478D02*
X114002D01*
G01X76554Y-64449D02*
X76239Y-64580D01*
X76003Y-64908D01*
X75845Y-65302D01*
X75727Y-65827D01*
X75688Y-66417D01*
X75727Y-67008D01*
X75845Y-67533D01*
X76003Y-67927D01*
X76239Y-68255D01*
X76554Y-68386D01*
X76869Y-68255D01*
X77105Y-67927D01*
X77263Y-67533D01*
X77381Y-67008D01*
X77420Y-66417D01*
X77381Y-65827D01*
X77263Y-65302D01*
X77105Y-64908D01*
X76869Y-64580D01*
X76554Y-64449D01*
G01X82016Y-68517D02*
X81937Y-68452D01*
Y-68320D01*
X82016Y-68255D01*
X82095Y-68320D01*
Y-68452D01*
X82016Y-68517D01*
G01X87951Y-68386D02*
Y-64449D01*
X86494Y-67270D01*
X88463D01*
G01X108686Y163346D02*
Y167283D01*
X107230Y164462D01*
X109198D01*
G01X113676Y167283D02*
X113361Y167152D01*
X113125Y166824D01*
X112967Y166430D01*
X112849Y165906D01*
X112810Y165315D01*
X112849Y164724D01*
X112967Y164200D01*
X113125Y163806D01*
X113361Y163478D01*
X113676Y163346D01*
X113991Y163478D01*
X114227Y163806D01*
X114385Y164200D01*
X114503Y164724D01*
X114542Y165315D01*
X114503Y165906D01*
X114385Y166430D01*
X114227Y166824D01*
X113991Y167152D01*
X113676Y167283D01*
G01X141682Y-60512D02*
Y-56575D01*
X142627D01*
X142942Y-56772D01*
X143178Y-57231D01*
X143257Y-57756D01*
X143178Y-58281D01*
X142981Y-58674D01*
X142627Y-58872D01*
X141682D01*
G01X147144Y-56575D02*
Y-60512D01*
X148719D01*
G01X152409D02*
X153394Y-56575D01*
X154378Y-60512D01*
G01X154024Y-59134D02*
X152764D01*
G01X158856Y-56575D02*
Y-60512D01*
G01X157950Y-56575D02*
X159761D01*
G01X165106Y-60512D02*
X163531D01*
Y-56575D01*
X165106D01*
G01X164476Y-58478D02*
X163531D01*
G01X168914Y-60512D02*
Y-56575D01*
X169702D01*
X170017Y-56772D01*
X170253Y-57034D01*
X170450Y-57428D01*
X170607Y-57887D01*
X170646Y-58543D01*
X170607Y-59200D01*
X170450Y-59659D01*
X170253Y-60053D01*
X170017Y-60315D01*
X169702Y-60512D01*
X168914D01*
G01X141682Y-68386D02*
Y-64449D01*
X142627D01*
X142942Y-64646D01*
X143178Y-65105D01*
X143257Y-65630D01*
X143178Y-66155D01*
X142981Y-66548D01*
X142627Y-66746D01*
X141682D01*
G01X147144Y-64449D02*
Y-68386D01*
X148719D01*
G01X152409D02*
X153394Y-64449D01*
X154378Y-68386D01*
G01X154024Y-67008D02*
X152764D01*
G01X158856Y-64449D02*
Y-68386D01*
G01X157950Y-64449D02*
X159761D01*
G01X165106Y-68386D02*
X163531D01*
Y-64449D01*
X165106D01*
G01X164476Y-66352D02*
X163531D01*
G01X168914Y-68386D02*
Y-64449D01*
X169702D01*
X170017Y-64646D01*
X170253Y-64908D01*
X170450Y-65302D01*
X170607Y-65761D01*
X170646Y-66417D01*
X170607Y-67074D01*
X170450Y-67533D01*
X170253Y-67927D01*
X170017Y-68189D01*
X169702Y-68386D01*
X168914D01*
G01X167426Y23543D02*
Y27480D01*
X165970Y24659D01*
X167938D01*
G01X172416Y27480D02*
X172101Y27349D01*
X171865Y27021D01*
X171707Y26627D01*
X171589Y26102D01*
X171550Y25512D01*
X171589Y24921D01*
X171707Y24396D01*
X171865Y24002D01*
X172101Y23674D01*
X172416Y23543D01*
X172731Y23674D01*
X172967Y24002D01*
X173125Y24396D01*
X173243Y24921D01*
X173282Y25512D01*
X173243Y26102D01*
X173125Y26627D01*
X172967Y27021D01*
X172731Y27349D01*
X172416Y27480D01*
G01X197460Y-60512D02*
X197145Y-60446D01*
X196870Y-60184D01*
X196633Y-59790D01*
X196476Y-59331D01*
X196397Y-58806D01*
Y-58281D01*
X196476Y-57756D01*
X196633Y-57296D01*
X196870Y-56903D01*
X197145Y-56641D01*
X197460Y-56575D01*
X197775Y-56641D01*
X198051Y-56903D01*
X198287Y-57296D01*
X198444Y-57756D01*
X198523Y-58281D01*
Y-58806D01*
X198444Y-59331D01*
X198287Y-59790D01*
X198051Y-60184D01*
X197775Y-60446D01*
X197460Y-60512D01*
G01X197775Y-59462D02*
X198248Y-60512D01*
G01X202922Y-56575D02*
Y-60512D01*
G01X202017Y-56575D02*
X203828D01*
G01X208385Y-60512D02*
Y-58740D01*
X207597Y-56575D01*
G01X209172D02*
X208385Y-58740D01*
G01X200191Y-68386D02*
Y-64449D01*
X199719Y-65236D01*
G01Y-68386D02*
X200664D01*
G01X205654D02*
X205929Y-68320D01*
X206244Y-68123D01*
X206441Y-67795D01*
X206520Y-67336D01*
X206441Y-66877D01*
X206205Y-66483D01*
X205850Y-66286D01*
X205457D01*
X205220Y-66155D01*
X205024Y-65827D01*
X204945Y-65367D01*
X205063Y-64908D01*
X205339Y-64580D01*
X205654Y-64449D01*
X205969Y-64580D01*
X206244Y-64908D01*
X206362Y-65367D01*
X206283Y-65827D01*
X206087Y-66155D01*
X205850Y-66286D01*
X205457D01*
X205102Y-66483D01*
X204866Y-66877D01*
X204787Y-67336D01*
X204866Y-67795D01*
X205063Y-68123D01*
X205378Y-68320D01*
X205654Y-68386D01*
G54D13*
G01X239355Y-27507D02*
Y-23570D01*
X240143D01*
X240457Y-23767D01*
X240694Y-24029D01*
X240891Y-24423D01*
X241048Y-24882D01*
X241087Y-25538D01*
X241048Y-26194D01*
X240891Y-26654D01*
X240694Y-27048D01*
X240457Y-27310D01*
X240143Y-27507D01*
X239355D01*
G01X243971D02*
X242396D01*
Y-23570D01*
X243971D01*
G01X243341Y-25472D02*
X242396D01*
G01X245319Y-26982D02*
X245634Y-27310D01*
X245988Y-27507D01*
X246303D01*
X246618Y-27310D01*
X246854Y-26982D01*
X246972Y-26522D01*
X246894Y-26063D01*
X246697Y-25669D01*
X246343Y-25407D01*
X245870Y-25276D01*
X245594Y-25013D01*
X245476Y-24554D01*
X245555Y-24094D01*
X245752Y-23767D01*
X246028Y-23570D01*
X246303D01*
X246579Y-23701D01*
X246815Y-24029D01*
G01X248635Y-23570D02*
X249580D01*
G01X249108D02*
Y-27507D01*
G01X248635D02*
X249580D01*
G01X252306Y-25538D02*
X253094D01*
Y-26719D01*
X252857Y-27113D01*
X252582Y-27376D01*
X252188Y-27507D01*
X251794Y-27376D01*
X251519Y-27113D01*
X251283Y-26719D01*
X251125Y-26260D01*
X251046Y-25735D01*
Y-25276D01*
X251125Y-24882D01*
X251283Y-24423D01*
X251519Y-24029D01*
X251755Y-23767D01*
X252070Y-23570D01*
X252346D01*
X252661Y-23701D01*
X252897Y-23963D01*
G01X254127Y-27507D02*
Y-23570D01*
X255938Y-27507D01*
Y-23570D01*
G01X261823Y-23898D02*
X261587Y-23701D01*
X261311Y-23570D01*
X260996D01*
X260642Y-23767D01*
X260366Y-24094D01*
X260169Y-24488D01*
X260012Y-25144D01*
X259972Y-25735D01*
X260051Y-26326D01*
X260169Y-26719D01*
X260406Y-27113D01*
X260681Y-27376D01*
X260957Y-27507D01*
X261232D01*
X261508Y-27376D01*
X261744Y-27179D01*
X261941Y-26916D01*
G01X263131Y-27507D02*
Y-23570D01*
X264116D01*
X264431Y-23767D01*
X264628Y-24029D01*
X264706Y-24554D01*
X264628Y-25079D01*
X264391Y-25407D01*
X264116Y-25604D01*
X263131D01*
G01X264116D02*
X264706Y-27507D01*
G01X266881D02*
X266566Y-27441D01*
X266291Y-27179D01*
X266054Y-26785D01*
X265897Y-26326D01*
X265818Y-25801D01*
Y-25276D01*
X265897Y-24751D01*
X266054Y-24291D01*
X266291Y-23898D01*
X266566Y-23635D01*
X266881Y-23570D01*
X267196Y-23635D01*
X267472Y-23898D01*
X267708Y-24291D01*
X267865Y-24751D01*
X267944Y-25276D01*
Y-25801D01*
X267865Y-26326D01*
X267708Y-26785D01*
X267472Y-27179D01*
X267196Y-27441D01*
X266881Y-27507D01*
G01X269017Y-26982D02*
X269331Y-27310D01*
X269686Y-27507D01*
X270001D01*
X270316Y-27310D01*
X270552Y-26982D01*
X270670Y-26522D01*
X270591Y-26063D01*
X270394Y-25669D01*
X270040Y-25407D01*
X269568Y-25276D01*
X269292Y-25013D01*
X269174Y-24554D01*
X269253Y-24094D01*
X269450Y-23767D01*
X269725Y-23570D01*
X270001D01*
X270276Y-23701D01*
X270513Y-24029D01*
G01X271979Y-26982D02*
X272294Y-27310D01*
X272648Y-27507D01*
X272963D01*
X273278Y-27310D01*
X273514Y-26982D01*
X273632Y-26522D01*
X273554Y-26063D01*
X273357Y-25669D01*
X273002Y-25407D01*
X272530Y-25276D01*
X272254Y-25013D01*
X272136Y-24554D01*
X272215Y-24094D01*
X272412Y-23767D01*
X272687Y-23570D01*
X272963D01*
X273239Y-23701D01*
X273475Y-24029D01*
G01X277903Y-26982D02*
X278218Y-27310D01*
X278572Y-27507D01*
X278887D01*
X279202Y-27310D01*
X279439Y-26982D01*
X279557Y-26522D01*
X279478Y-26063D01*
X279281Y-25669D01*
X278927Y-25407D01*
X278454Y-25276D01*
X278179Y-25013D01*
X278061Y-24554D01*
X278139Y-24094D01*
X278336Y-23767D01*
X278612Y-23570D01*
X278887D01*
X279163Y-23701D01*
X279399Y-24029D01*
G01X282480Y-27507D02*
X280905D01*
Y-23570D01*
X282480D01*
G01X281850Y-25472D02*
X280905D01*
G01X285520Y-23898D02*
X285284Y-23701D01*
X285009Y-23570D01*
X284694D01*
X284339Y-23767D01*
X284064Y-24094D01*
X283867Y-24488D01*
X283709Y-25144D01*
X283670Y-25735D01*
X283749Y-26326D01*
X283867Y-26719D01*
X284103Y-27113D01*
X284379Y-27376D01*
X284654Y-27507D01*
X284930D01*
X285206Y-27376D01*
X285442Y-27179D01*
X285639Y-26916D01*
G01X287617Y-23570D02*
Y-27507D01*
G01X286711Y-23570D02*
X288522D01*
G01X290106D02*
X291051D01*
G01X290579D02*
Y-27507D01*
G01X290106D02*
X291051D01*
G01X293541D02*
X293226Y-27441D01*
X292950Y-27179D01*
X292714Y-26785D01*
X292557Y-26326D01*
X292478Y-25801D01*
Y-25276D01*
X292557Y-24751D01*
X292714Y-24291D01*
X292950Y-23898D01*
X293226Y-23635D01*
X293541Y-23570D01*
X293856Y-23635D01*
X294131Y-23898D01*
X294368Y-24291D01*
X294525Y-24751D01*
X294604Y-25276D01*
Y-25801D01*
X294525Y-26326D01*
X294368Y-26785D01*
X294131Y-27179D01*
X293856Y-27441D01*
X293541Y-27507D01*
G01X295598D02*
Y-23570D01*
X297409Y-27507D01*
Y-23570D01*
G01X303294Y-23898D02*
X303057Y-23701D01*
X302782Y-23570D01*
X302467D01*
X302113Y-23767D01*
X301837Y-24094D01*
X301640Y-24488D01*
X301483Y-25144D01*
X301443Y-25735D01*
X301522Y-26326D01*
X301640Y-26719D01*
X301876Y-27113D01*
X302152Y-27376D01*
X302428Y-27507D01*
X302703D01*
X302979Y-27376D01*
X303215Y-27179D01*
X303412Y-26916D01*
G01X304563Y-27507D02*
Y-23570D01*
G01X306217D02*
Y-27507D01*
G01Y-25538D02*
X304563D01*
G01X307368Y-27507D02*
X308352Y-23570D01*
X309336Y-27507D01*
G01X308982Y-26129D02*
X307722D01*
G01X310527Y-27507D02*
Y-23570D01*
X311511D01*
X311826Y-23767D01*
X312023Y-24029D01*
X312102Y-24554D01*
X312023Y-25079D01*
X311787Y-25407D01*
X311511Y-25604D01*
X310527D01*
G01X311511D02*
X312102Y-27507D01*
G01X314276Y-23570D02*
Y-27507D01*
G01X313371Y-23570D02*
X315182D01*
G01X237559Y-28819D02*
X239921D01*
G01X240521D02*
X242883D01*
G01X243483D02*
X245846D01*
G01X246446D02*
X248808D01*
G01X249408D02*
X251770D01*
G01X252370D02*
X254732D01*
G01X255332D02*
X257694D01*
G01X258294D02*
X260657D01*
G01X261257D02*
X263619D01*
G01X264219D02*
X266581D01*
G01X267181D02*
X269543D01*
G01X270143D02*
X272506D01*
G01X273106D02*
X275468D01*
G01X276068D02*
X278430D01*
G01X279030D02*
X281392D01*
G01X281992D02*
X284354D01*
G01X284954D02*
X287317D01*
G01X287917D02*
X290279D01*
G01X290879D02*
X293241D01*
G01X293841D02*
X296203D01*
G01X296803D02*
X299165D01*
G01X299765D02*
X302128D01*
G01X302728D02*
X305090D01*
G01X305690D02*
X308052D01*
G01X308652D02*
X311014D01*
G01X311614D02*
X313976D01*
G01X314576D02*
X316939D01*
G01X246146Y-30656D02*
Y-34593D01*
G01X245240Y-30656D02*
X247051D01*
G01X249108Y-34593D02*
X248793Y-34528D01*
X248517Y-34265D01*
X248281Y-33872D01*
X248124Y-33412D01*
X248045Y-32887D01*
Y-32362D01*
X248124Y-31837D01*
X248281Y-31378D01*
X248517Y-30984D01*
X248793Y-30722D01*
X249108Y-30656D01*
X249423Y-30722D01*
X249698Y-30984D01*
X249935Y-31378D01*
X250092Y-31837D01*
X250171Y-32362D01*
Y-32887D01*
X250092Y-33412D01*
X249935Y-33872D01*
X249698Y-34265D01*
X249423Y-34528D01*
X249108Y-34593D01*
G01X252070Y-30656D02*
Y-34593D01*
G01X251165Y-30656D02*
X252976D01*
G01X254048Y-34593D02*
X255032Y-30656D01*
X256017Y-34593D01*
G01X255662Y-33215D02*
X254402D01*
G01X257207Y-30656D02*
Y-34593D01*
X258782D01*
G01X263919Y-30656D02*
Y-34593D01*
G01X263013Y-30656D02*
X264824D01*
G01X266054Y-34593D02*
Y-30656D01*
G01X267708D02*
Y-34593D01*
G01Y-32625D02*
X266054D01*
G01X269371Y-30656D02*
X270316D01*
G01X269843D02*
Y-34593D01*
G01X269371D02*
X270316D01*
G01X273672Y-30984D02*
X273435Y-30787D01*
X273160Y-30656D01*
X272845D01*
X272491Y-30853D01*
X272215Y-31181D01*
X272018Y-31575D01*
X271861Y-32231D01*
X271821Y-32822D01*
X271900Y-33412D01*
X272018Y-33806D01*
X272254Y-34200D01*
X272530Y-34462D01*
X272806Y-34593D01*
X273081D01*
X273357Y-34462D01*
X273593Y-34265D01*
X273790Y-34003D01*
G01X274902Y-34593D02*
Y-30656D01*
G01X276398D02*
X274902Y-33084D01*
G01X276634Y-34593D02*
X275571Y-31969D01*
G01X277824Y-34593D02*
Y-30656D01*
X279635Y-34593D01*
Y-30656D01*
G01X282480Y-34593D02*
X280905D01*
Y-30656D01*
X282480D01*
G01X281850Y-32559D02*
X280905D01*
G01X283828Y-34069D02*
X284143Y-34396D01*
X284497Y-34593D01*
X284812D01*
X285127Y-34396D01*
X285363Y-34069D01*
X285481Y-33609D01*
X285402Y-33150D01*
X285206Y-32756D01*
X284851Y-32494D01*
X284379Y-32362D01*
X284103Y-32100D01*
X283985Y-31641D01*
X284064Y-31181D01*
X284261Y-30853D01*
X284536Y-30656D01*
X284812D01*
X285087Y-30787D01*
X285324Y-31116D01*
G01X286790Y-34069D02*
X287105Y-34396D01*
X287459Y-34593D01*
X287774D01*
X288089Y-34396D01*
X288325Y-34069D01*
X288443Y-33609D01*
X288365Y-33150D01*
X288168Y-32756D01*
X287813Y-32494D01*
X287341Y-32362D01*
X287065Y-32100D01*
X286947Y-31641D01*
X287026Y-31181D01*
X287223Y-30853D01*
X287498Y-30656D01*
X287774D01*
X288050Y-30787D01*
X288286Y-31116D01*
G01X293541Y-34593D02*
Y-30656D01*
X293069Y-31444D01*
G01Y-34593D02*
X294013D01*
G01X296503Y-34724D02*
X296424Y-34659D01*
Y-34528D01*
X296503Y-34462D01*
X296582Y-34528D01*
Y-34659D01*
X296503Y-34724D01*
G01X298717Y-32953D02*
X298993Y-32494D01*
X299229Y-32231D01*
X299544Y-32100D01*
X299820Y-32231D01*
X300017Y-32494D01*
X300174Y-32887D01*
X300213Y-33346D01*
X300174Y-33740D01*
X300017Y-34134D01*
X299780Y-34462D01*
X299505Y-34593D01*
X299190Y-34462D01*
X298914Y-34069D01*
X298757Y-33478D01*
X298717Y-32822D01*
X298796Y-31969D01*
X298914Y-31509D01*
X299111Y-31050D01*
X299387Y-30722D01*
X299662Y-30656D01*
X299938Y-30787D01*
X300135Y-31116D01*
G01X304366Y-34593D02*
Y-30656D01*
X305390Y-33937D01*
X306413Y-30656D01*
Y-34593D01*
G01X307328D02*
Y-30656D01*
X308352Y-33937D01*
X309376Y-30656D01*
Y-34593D01*
G01X274749Y196800D02*
X270812D01*
X271599Y196327D01*
G01X274749D02*
Y197272D01*
G01X273437Y199250D02*
Y200274D01*
G01X271468Y201976D02*
X271074Y202212D01*
X270878Y202488D01*
X270812Y202803D01*
X270943Y203196D01*
X271271Y203472D01*
X271665Y203551D01*
X272059Y203511D01*
X272387Y203354D01*
X273043Y202567D01*
X273502Y202212D01*
X274158Y201976D01*
X274749Y201897D01*
Y203551D01*
G01X316450Y-18255D02*
X318183Y-15368D01*
G01X317317Y-14843D02*
Y-18780D01*
G01X318183Y-18255D02*
X316450Y-15368D01*
G01X316135Y-16811D02*
X318498D01*
G01X325376Y-17599D02*
X325691Y-17927D01*
X326046Y-18124D01*
X326361D01*
X326676Y-17927D01*
X326912Y-17599D01*
X327030Y-17139D01*
X326951Y-16680D01*
X326754Y-16286D01*
X326400Y-16024D01*
X325928Y-15893D01*
X325652Y-15630D01*
X325534Y-15171D01*
X325613Y-14711D01*
X325809Y-14383D01*
X326085Y-14187D01*
X326361D01*
X326636Y-14318D01*
X326872Y-14646D01*
G01X328299Y-14187D02*
Y-17008D01*
X328457Y-17599D01*
X328772Y-17993D01*
X329165Y-18124D01*
X329559Y-17993D01*
X329874Y-17599D01*
X330031Y-17008D01*
Y-14187D01*
G01X331340Y-18124D02*
Y-14187D01*
X332324D01*
X332639Y-14383D01*
X332836Y-14646D01*
X332915Y-15171D01*
X332836Y-15696D01*
X332600Y-16024D01*
X332324Y-16221D01*
X331340D01*
G01X332324D02*
X332915Y-18124D01*
G01X334342D02*
Y-14187D01*
X335838D01*
G01X335287Y-16089D02*
X334342D01*
G01X337068Y-18124D02*
X338052Y-14187D01*
X339036Y-18124D01*
G01X338682Y-16746D02*
X337422D01*
G01X341880Y-14515D02*
X341644Y-14318D01*
X341369Y-14187D01*
X341054D01*
X340699Y-14383D01*
X340424Y-14711D01*
X340227Y-15105D01*
X340069Y-15761D01*
X340030Y-16352D01*
X340109Y-16943D01*
X340227Y-17336D01*
X340463Y-17730D01*
X340739Y-17993D01*
X341014Y-18124D01*
X341290D01*
X341565Y-17993D01*
X341802Y-17796D01*
X341998Y-17533D01*
G01X344764Y-18124D02*
X343189D01*
Y-14187D01*
X344764D01*
G01X344134Y-16089D02*
X343189D01*
G01X349389Y-16811D02*
X350413D01*
G01X354841Y-18124D02*
X355825Y-14187D01*
X356809Y-18124D01*
G01X356455Y-16746D02*
X355195D01*
G01X358315Y-14187D02*
X359260D01*
G01X358787D02*
Y-18124D01*
G01X358315D02*
X359260D01*
G01X360962D02*
Y-14187D01*
X361946D01*
X362261Y-14383D01*
X362458Y-14646D01*
X362537Y-15171D01*
X362458Y-15696D01*
X362222Y-16024D01*
X361946Y-16221D01*
X360962D01*
G01X361946D02*
X362537Y-18124D01*
G01X367674Y-14187D02*
X367359Y-14318D01*
X367123Y-14646D01*
X366965Y-15040D01*
X366847Y-15565D01*
X366808Y-16155D01*
X366847Y-16746D01*
X366965Y-17270D01*
X367123Y-17665D01*
X367359Y-17993D01*
X367674Y-18124D01*
X367989Y-17993D01*
X368225Y-17665D01*
X368383Y-17270D01*
X368501Y-16746D01*
X368540Y-16155D01*
X368501Y-15565D01*
X368383Y-15040D01*
X368225Y-14646D01*
X367989Y-14318D01*
X367674Y-14187D01*
G01X372575Y-18124D02*
Y-14187D01*
X373598Y-17467D01*
X374622Y-14187D01*
Y-18124D01*
G01X375537D02*
Y-14187D01*
X376561Y-17467D01*
X377584Y-14187D01*
Y-18124D01*
G01X310605Y-8937D02*
Y-12874D01*
X312180D01*
G01X313606Y-9594D02*
X313843Y-9200D01*
X314118Y-9003D01*
X314433Y-8937D01*
X314827Y-9069D01*
X315102Y-9397D01*
X315181Y-9791D01*
X315142Y-10184D01*
X314984Y-10512D01*
X314197Y-11169D01*
X313843Y-11628D01*
X313606Y-12284D01*
X313528Y-12874D01*
X315181D01*
G01X320594Y-10775D02*
X320751Y-10578D01*
X320869Y-10250D01*
X320948Y-9791D01*
X320869Y-9397D01*
X320712Y-9134D01*
X320436Y-8937D01*
X319373D01*
Y-12874D01*
X320672D01*
X320948Y-12612D01*
X321106Y-12218D01*
X321184Y-11759D01*
X321106Y-11300D01*
X320869Y-10906D01*
X320594Y-10775D01*
X319373D01*
G01X323241Y-12874D02*
X322926Y-12809D01*
X322650Y-12546D01*
X322414Y-12153D01*
X322257Y-11693D01*
X322178Y-11169D01*
Y-10643D01*
X322257Y-10119D01*
X322414Y-9659D01*
X322650Y-9265D01*
X322926Y-9003D01*
X323241Y-8937D01*
X323556Y-9003D01*
X323831Y-9265D01*
X324068Y-9659D01*
X324225Y-10119D01*
X324304Y-10643D01*
Y-11169D01*
X324225Y-11693D01*
X324068Y-12153D01*
X323831Y-12546D01*
X323556Y-12809D01*
X323241Y-12874D01*
G01X326203Y-8937D02*
Y-12874D01*
G01X325298Y-8937D02*
X327109D01*
G01X329165D02*
Y-12874D01*
G01X328260Y-8937D02*
X330071D01*
G01X332128Y-12874D02*
X331813Y-12809D01*
X331537Y-12546D01*
X331301Y-12153D01*
X331143Y-11693D01*
X331065Y-11169D01*
Y-10643D01*
X331143Y-10119D01*
X331301Y-9659D01*
X331537Y-9265D01*
X331813Y-9003D01*
X332128Y-8937D01*
X332443Y-9003D01*
X332718Y-9265D01*
X332954Y-9659D01*
X333112Y-10119D01*
X333191Y-10643D01*
Y-11169D01*
X333112Y-11693D01*
X332954Y-12153D01*
X332718Y-12546D01*
X332443Y-12809D01*
X332128Y-12874D01*
G01X334066D02*
Y-8937D01*
X335090Y-12218D01*
X336113Y-8937D01*
Y-12874D01*
G01X341880Y-9265D02*
X341644Y-9069D01*
X341369Y-8937D01*
X341054D01*
X340699Y-9134D01*
X340424Y-9462D01*
X340227Y-9856D01*
X340069Y-10512D01*
X340030Y-11103D01*
X340109Y-11693D01*
X340227Y-12087D01*
X340463Y-12481D01*
X340739Y-12743D01*
X341014Y-12874D01*
X341290D01*
X341565Y-12743D01*
X341802Y-12546D01*
X341998Y-12284D01*
G01X343976Y-12874D02*
X343661Y-12809D01*
X343386Y-12546D01*
X343150Y-12153D01*
X342992Y-11693D01*
X342913Y-11169D01*
Y-10643D01*
X342992Y-10119D01*
X343150Y-9659D01*
X343386Y-9265D01*
X343661Y-9003D01*
X343976Y-8937D01*
X344291Y-9003D01*
X344567Y-9265D01*
X344803Y-9659D01*
X344961Y-10119D01*
X345039Y-10643D01*
Y-11169D01*
X344961Y-11693D01*
X344803Y-12153D01*
X344567Y-12546D01*
X344291Y-12809D01*
X343976Y-12874D01*
G01X346033D02*
Y-8937D01*
X347844Y-12874D01*
Y-8937D01*
G01X349035Y-12874D02*
Y-8937D01*
X349822D01*
X350137Y-9134D01*
X350373Y-9397D01*
X350570Y-9791D01*
X350728Y-10250D01*
X350767Y-10906D01*
X350728Y-11562D01*
X350570Y-12021D01*
X350373Y-12415D01*
X350137Y-12678D01*
X349822Y-12874D01*
X349035D01*
G01X351997Y-8937D02*
Y-11759D01*
X352154Y-12350D01*
X352469Y-12743D01*
X352863Y-12874D01*
X353257Y-12743D01*
X353572Y-12350D01*
X353729Y-11759D01*
Y-8937D01*
G01X356691Y-9265D02*
X356455Y-9069D01*
X356180Y-8937D01*
X355865D01*
X355510Y-9134D01*
X355235Y-9462D01*
X355038Y-9856D01*
X354880Y-10512D01*
X354841Y-11103D01*
X354920Y-11693D01*
X355038Y-12087D01*
X355274Y-12481D01*
X355550Y-12743D01*
X355825Y-12874D01*
X356101D01*
X356376Y-12743D01*
X356613Y-12546D01*
X356809Y-12284D01*
G01X358787Y-8937D02*
Y-12874D01*
G01X357882Y-8937D02*
X359693D01*
G01X361750Y-12874D02*
X361435Y-12809D01*
X361159Y-12546D01*
X360923Y-12153D01*
X360765Y-11693D01*
X360687Y-11169D01*
Y-10643D01*
X360765Y-10119D01*
X360923Y-9659D01*
X361159Y-9265D01*
X361435Y-9003D01*
X361750Y-8937D01*
X362065Y-9003D01*
X362340Y-9265D01*
X362576Y-9659D01*
X362734Y-10119D01*
X362813Y-10643D01*
Y-11169D01*
X362734Y-11693D01*
X362576Y-12153D01*
X362340Y-12546D01*
X362065Y-12809D01*
X361750Y-12874D01*
G01X363924D02*
Y-8937D01*
X364909D01*
X365224Y-9134D01*
X365420Y-9397D01*
X365499Y-9922D01*
X365420Y-10446D01*
X365184Y-10775D01*
X364909Y-10972D01*
X363924D01*
G01X364909D02*
X365499Y-12874D01*
G01X370124Y-11562D02*
X371148D01*
G01X377427Y-9265D02*
X377191Y-9069D01*
X376915Y-8937D01*
X376600D01*
X376246Y-9134D01*
X375970Y-9462D01*
X375773Y-9856D01*
X375616Y-10512D01*
X375576Y-11103D01*
X375655Y-11693D01*
X375773Y-12087D01*
X376009Y-12481D01*
X376285Y-12743D01*
X376561Y-12874D01*
X376836D01*
X377112Y-12743D01*
X377348Y-12546D01*
X377545Y-12284D01*
G01X379523Y-12874D02*
X379208Y-12809D01*
X378932Y-12546D01*
X378696Y-12153D01*
X378539Y-11693D01*
X378460Y-11169D01*
Y-10643D01*
X378539Y-10119D01*
X378696Y-9659D01*
X378932Y-9265D01*
X379208Y-9003D01*
X379523Y-8937D01*
X379838Y-9003D01*
X380113Y-9265D01*
X380350Y-9659D01*
X380507Y-10119D01*
X380586Y-10643D01*
Y-11169D01*
X380507Y-11693D01*
X380350Y-12153D01*
X380113Y-12546D01*
X379838Y-12809D01*
X379523Y-12874D01*
G01X381698D02*
Y-8937D01*
X382643D01*
X382957Y-9134D01*
X383194Y-9594D01*
X383272Y-10119D01*
X383194Y-10643D01*
X382997Y-11037D01*
X382643Y-11234D01*
X381698D01*
G01X384660Y-12874D02*
Y-8937D01*
X385605D01*
X385920Y-9134D01*
X386156Y-9594D01*
X386235Y-10119D01*
X386156Y-10643D01*
X385959Y-11037D01*
X385605Y-11234D01*
X384660D01*
G01X389197Y-12874D02*
X387622D01*
Y-8937D01*
X389197D01*
G01X388567Y-10840D02*
X387622D01*
G01X390584Y-12874D02*
Y-8937D01*
X391569D01*
X391883Y-9134D01*
X392080Y-9397D01*
X392159Y-9922D01*
X392080Y-10446D01*
X391844Y-10775D01*
X391569Y-10972D01*
X390584D01*
G01X391569D02*
X392159Y-12874D01*
G01X397296Y-8937D02*
X396981Y-9069D01*
X396745Y-9397D01*
X396587Y-9791D01*
X396469Y-10315D01*
X396430Y-10906D01*
X396469Y-11496D01*
X396587Y-12021D01*
X396745Y-12415D01*
X396981Y-12743D01*
X397296Y-12874D01*
X397611Y-12743D01*
X397847Y-12415D01*
X398005Y-12021D01*
X398123Y-11496D01*
X398162Y-10906D01*
X398123Y-10315D01*
X398005Y-9791D01*
X397847Y-9397D01*
X397611Y-9069D01*
X397296Y-8937D01*
G01X400258Y-13006D02*
X400180Y-12940D01*
Y-12809D01*
X400258Y-12743D01*
X400337Y-12809D01*
Y-12940D01*
X400258Y-13006D01*
G01X403220Y-8937D02*
X402906Y-9069D01*
X402669Y-9397D01*
X402512Y-9791D01*
X402394Y-10315D01*
X402354Y-10906D01*
X402394Y-11496D01*
X402512Y-12021D01*
X402669Y-12415D01*
X402906Y-12743D01*
X403220Y-12874D01*
X403535Y-12743D01*
X403772Y-12415D01*
X403929Y-12021D01*
X404047Y-11496D01*
X404087Y-10906D01*
X404047Y-10315D01*
X403929Y-9791D01*
X403772Y-9397D01*
X403535Y-9069D01*
X403220Y-8937D01*
G01X406183Y-12874D02*
Y-8937D01*
X405710Y-9725D01*
G01Y-12874D02*
X406655D01*
G01X409145D02*
X409420Y-12809D01*
X409735Y-12612D01*
X409932Y-12284D01*
X410011Y-11824D01*
X409932Y-11365D01*
X409696Y-10972D01*
X409342Y-10775D01*
X408948D01*
X408712Y-10643D01*
X408515Y-10315D01*
X408436Y-9856D01*
X408554Y-9397D01*
X408830Y-9069D01*
X409145Y-8937D01*
X409460Y-9069D01*
X409735Y-9397D01*
X409854Y-9856D01*
X409775Y-10315D01*
X409578Y-10643D01*
X409342Y-10775D01*
X408948D01*
X408594Y-10972D01*
X408357Y-11365D01*
X408279Y-11824D01*
X408357Y-12284D01*
X408554Y-12612D01*
X408869Y-12809D01*
X409145Y-12874D01*
G01X414046D02*
Y-8937D01*
X415069Y-12218D01*
X416093Y-8937D01*
Y-12874D01*
G01X417008D02*
Y-8937D01*
X418031Y-12218D01*
X419055Y-8937D01*
Y-12874D01*
G01X316450Y90763D02*
X318183Y93650D01*
G01X317317Y94175D02*
Y90238D01*
G01X318183Y90763D02*
X316450Y93650D01*
G01X316135Y92207D02*
X318498D01*
G01X325337Y90894D02*
Y94831D01*
X326124D01*
X326439Y94635D01*
X326676Y94372D01*
X326872Y93978D01*
X327030Y93519D01*
X327069Y92863D01*
X327030Y92207D01*
X326872Y91748D01*
X326676Y91354D01*
X326439Y91091D01*
X326124Y90894D01*
X325337D01*
G01X328693Y94831D02*
X329638D01*
G01X329165D02*
Y90894D01*
G01X328693D02*
X329638D01*
G01X332915D02*
X331340D01*
Y94831D01*
X332915D01*
G01X332285Y92929D02*
X331340D01*
G01X334302Y94831D02*
Y90894D01*
X335877D01*
G01X338839D02*
X337265D01*
Y94831D01*
X338839D01*
G01X338209Y92929D02*
X337265D01*
G01X341880Y94504D02*
X341644Y94700D01*
X341369Y94831D01*
X341054D01*
X340699Y94635D01*
X340424Y94307D01*
X340227Y93913D01*
X340069Y93257D01*
X340030Y92666D01*
X340109Y92076D01*
X340227Y91682D01*
X340463Y91288D01*
X340739Y91026D01*
X341014Y90894D01*
X341290D01*
X341565Y91026D01*
X341802Y91222D01*
X341998Y91485D01*
G01X343976Y94831D02*
Y90894D01*
G01X343071Y94831D02*
X344882D01*
G01X346151Y90894D02*
Y94831D01*
X347135D01*
X347450Y94635D01*
X347647Y94372D01*
X347726Y93847D01*
X347647Y93322D01*
X347411Y92994D01*
X347135Y92797D01*
X346151D01*
G01X347135D02*
X347726Y90894D01*
G01X349428Y94831D02*
X350373D01*
G01X349901D02*
Y90894D01*
G01X349428D02*
X350373D01*
G01X353729Y94504D02*
X353493Y94700D01*
X353217Y94831D01*
X352902D01*
X352548Y94635D01*
X352272Y94307D01*
X352076Y93913D01*
X351918Y93257D01*
X351879Y92666D01*
X351957Y92076D01*
X352076Y91682D01*
X352312Y91288D01*
X352587Y91026D01*
X352863Y90894D01*
X353139D01*
X353414Y91026D01*
X353650Y91222D01*
X353847Y91485D01*
G01X358276Y92207D02*
X359299D01*
G01X363964Y90894D02*
Y94831D01*
X365460D01*
G01X364909Y92929D02*
X363964D01*
G01X366887Y90894D02*
Y94831D01*
X367871D01*
X368186Y94635D01*
X368383Y94372D01*
X368461Y93847D01*
X368383Y93322D01*
X368146Y92994D01*
X367871Y92797D01*
X366887D01*
G01X367871D02*
X368461Y90894D01*
G01X370124Y92207D02*
X371148D01*
G01X374071Y90894D02*
Y94831D01*
X372614Y92010D01*
X374583D01*
G01X379523Y90894D02*
Y94831D01*
X379050Y94044D01*
G01Y90894D02*
X379995D01*
G01X382485Y90763D02*
X382406Y90829D01*
Y90960D01*
X382485Y91026D01*
X382564Y90960D01*
Y90829D01*
X382485Y90763D01*
G01X384581Y91485D02*
X384817Y91157D01*
X385093Y90960D01*
X385447Y90894D01*
X385802Y91026D01*
X386077Y91288D01*
X386274Y91748D01*
X386313Y92272D01*
X386235Y92797D01*
X386038Y93126D01*
X385762Y93388D01*
X385487Y93454D01*
X385211Y93388D01*
X384857Y93126D01*
X384975Y94831D01*
X386038D01*
G01X387661Y92535D02*
X387937Y92994D01*
X388173Y93257D01*
X388488Y93388D01*
X388764Y93257D01*
X388961Y92994D01*
X389118Y92600D01*
X389157Y92141D01*
X389118Y91748D01*
X388961Y91354D01*
X388724Y91026D01*
X388449Y90894D01*
X388134Y91026D01*
X387858Y91419D01*
X387701Y92010D01*
X387661Y92666D01*
X387740Y93519D01*
X387858Y93978D01*
X388055Y94438D01*
X388331Y94766D01*
X388606Y94831D01*
X388882Y94700D01*
X389079Y94372D01*
G01X391844Y90894D02*
Y94831D01*
X390387Y92010D01*
X392356D01*
G01X396272Y90894D02*
Y94831D01*
X397296Y91551D01*
X398320Y94831D01*
Y90894D01*
G01X399235D02*
Y94831D01*
X400258Y91551D01*
X401282Y94831D01*
Y90894D01*
G01X310605Y190369D02*
Y186432D01*
X312180D01*
G01X314354D02*
Y190369D01*
X313882Y189582D01*
G01Y186432D02*
X314827D01*
G01X320279Y190369D02*
Y186432D01*
G01X319373Y190369D02*
X321184D01*
G01X323241Y186432D02*
X322926Y186498D01*
X322650Y186760D01*
X322414Y187154D01*
X322257Y187613D01*
X322178Y188138D01*
Y188663D01*
X322257Y189188D01*
X322414Y189648D01*
X322650Y190041D01*
X322926Y190304D01*
X323241Y190369D01*
X323556Y190304D01*
X323831Y190041D01*
X324068Y189648D01*
X324225Y189188D01*
X324304Y188663D01*
Y188138D01*
X324225Y187613D01*
X324068Y187154D01*
X323831Y186760D01*
X323556Y186498D01*
X323241Y186432D01*
G01X325416D02*
Y190369D01*
X326361D01*
X326676Y190172D01*
X326912Y189713D01*
X326991Y189188D01*
X326912Y188663D01*
X326715Y188270D01*
X326361Y188072D01*
X325416D01*
G01X332994Y190041D02*
X332757Y190238D01*
X332482Y190369D01*
X332167D01*
X331813Y190172D01*
X331537Y189844D01*
X331340Y189451D01*
X331183Y188794D01*
X331143Y188204D01*
X331222Y187613D01*
X331340Y187220D01*
X331576Y186826D01*
X331852Y186563D01*
X332128Y186432D01*
X332403D01*
X332679Y186563D01*
X332915Y186760D01*
X333112Y187023D01*
G01X335090Y186432D02*
X334775Y186498D01*
X334499Y186760D01*
X334263Y187154D01*
X334106Y187613D01*
X334027Y188138D01*
Y188663D01*
X334106Y189188D01*
X334263Y189648D01*
X334499Y190041D01*
X334775Y190304D01*
X335090Y190369D01*
X335405Y190304D01*
X335680Y190041D01*
X335917Y189648D01*
X336074Y189188D01*
X336153Y188663D01*
Y188138D01*
X336074Y187613D01*
X335917Y187154D01*
X335680Y186760D01*
X335405Y186498D01*
X335090Y186432D01*
G01X337146D02*
Y190369D01*
X338957Y186432D01*
Y190369D01*
G01X340148Y186432D02*
Y190369D01*
X340935D01*
X341250Y190172D01*
X341487Y189910D01*
X341683Y189516D01*
X341841Y189057D01*
X341880Y188401D01*
X341841Y187744D01*
X341683Y187285D01*
X341487Y186891D01*
X341250Y186629D01*
X340935Y186432D01*
X340148D01*
G01X343110Y190369D02*
Y187548D01*
X343268Y186957D01*
X343583Y186563D01*
X343976Y186432D01*
X344370Y186563D01*
X344685Y186957D01*
X344843Y187548D01*
Y190369D01*
G01X347805Y190041D02*
X347569Y190238D01*
X347293Y190369D01*
X346978D01*
X346624Y190172D01*
X346348Y189844D01*
X346151Y189451D01*
X345994Y188794D01*
X345954Y188204D01*
X346033Y187613D01*
X346151Y187220D01*
X346387Y186826D01*
X346663Y186563D01*
X346939Y186432D01*
X347214D01*
X347490Y186563D01*
X347726Y186760D01*
X347923Y187023D01*
G01X349901Y190369D02*
Y186432D01*
G01X348995Y190369D02*
X350806D01*
G01X352863Y186432D02*
X352548Y186498D01*
X352272Y186760D01*
X352036Y187154D01*
X351879Y187613D01*
X351800Y188138D01*
Y188663D01*
X351879Y189188D01*
X352036Y189648D01*
X352272Y190041D01*
X352548Y190304D01*
X352863Y190369D01*
X353178Y190304D01*
X353454Y190041D01*
X353690Y189648D01*
X353847Y189188D01*
X353926Y188663D01*
Y188138D01*
X353847Y187613D01*
X353690Y187154D01*
X353454Y186760D01*
X353178Y186498D01*
X352863Y186432D01*
G01X355038D02*
Y190369D01*
X356022D01*
X356337Y190172D01*
X356534Y189910D01*
X356613Y189385D01*
X356534Y188860D01*
X356298Y188532D01*
X356022Y188335D01*
X355038D01*
G01X356022D02*
X356613Y186432D01*
G01X361238Y187744D02*
X362261D01*
G01X368540Y190041D02*
X368304Y190238D01*
X368028Y190369D01*
X367713D01*
X367359Y190172D01*
X367083Y189844D01*
X366887Y189451D01*
X366729Y188794D01*
X366690Y188204D01*
X366769Y187613D01*
X366887Y187220D01*
X367123Y186826D01*
X367398Y186563D01*
X367674Y186432D01*
X367950D01*
X368225Y186563D01*
X368461Y186760D01*
X368658Y187023D01*
G01X370636Y186432D02*
X370321Y186498D01*
X370046Y186760D01*
X369809Y187154D01*
X369652Y187613D01*
X369573Y188138D01*
Y188663D01*
X369652Y189188D01*
X369809Y189648D01*
X370046Y190041D01*
X370321Y190304D01*
X370636Y190369D01*
X370951Y190304D01*
X371227Y190041D01*
X371463Y189648D01*
X371620Y189188D01*
X371699Y188663D01*
Y188138D01*
X371620Y187613D01*
X371463Y187154D01*
X371227Y186760D01*
X370951Y186498D01*
X370636Y186432D01*
G01X372811D02*
Y190369D01*
X373756D01*
X374071Y190172D01*
X374307Y189713D01*
X374386Y189188D01*
X374307Y188663D01*
X374110Y188270D01*
X373756Y188072D01*
X372811D01*
G01X375773Y186432D02*
Y190369D01*
X376718D01*
X377033Y190172D01*
X377269Y189713D01*
X377348Y189188D01*
X377269Y188663D01*
X377072Y188270D01*
X376718Y188072D01*
X375773D01*
G01X380310Y186432D02*
X378735D01*
Y190369D01*
X380310D01*
G01X379680Y188467D02*
X378735D01*
G01X381698Y186432D02*
Y190369D01*
X382682D01*
X382997Y190172D01*
X383194Y189910D01*
X383272Y189385D01*
X383194Y188860D01*
X382957Y188532D01*
X382682Y188335D01*
X381698D01*
G01X382682D02*
X383272Y186432D01*
G01X388409Y190369D02*
X388094Y190238D01*
X387858Y189910D01*
X387701Y189516D01*
X387583Y188991D01*
X387543Y188401D01*
X387583Y187810D01*
X387701Y187285D01*
X387858Y186891D01*
X388094Y186563D01*
X388409Y186432D01*
X388724Y186563D01*
X388961Y186891D01*
X389118Y187285D01*
X389236Y187810D01*
X389276Y188401D01*
X389236Y188991D01*
X389118Y189516D01*
X388961Y189910D01*
X388724Y190238D01*
X388409Y190369D01*
G01X391372Y186301D02*
X391293Y186367D01*
Y186498D01*
X391372Y186563D01*
X391450Y186498D01*
Y186367D01*
X391372Y186301D01*
G01X394334Y190369D02*
X394019Y190238D01*
X393783Y189910D01*
X393625Y189516D01*
X393507Y188991D01*
X393468Y188401D01*
X393507Y187810D01*
X393625Y187285D01*
X393783Y186891D01*
X394019Y186563D01*
X394334Y186432D01*
X394649Y186563D01*
X394885Y186891D01*
X395043Y187285D01*
X395161Y187810D01*
X395200Y188401D01*
X395161Y188991D01*
X395043Y189516D01*
X394885Y189910D01*
X394649Y190238D01*
X394334Y190369D01*
G01X397296Y186432D02*
Y190369D01*
X396824Y189582D01*
G01Y186432D02*
X397769D01*
G01X400258D02*
X400534Y186498D01*
X400849Y186695D01*
X401046Y187023D01*
X401124Y187482D01*
X401046Y187941D01*
X400809Y188335D01*
X400455Y188532D01*
X400061D01*
X399825Y188663D01*
X399628Y188991D01*
X399550Y189451D01*
X399668Y189910D01*
X399943Y190238D01*
X400258Y190369D01*
X400573Y190238D01*
X400849Y189910D01*
X400967Y189451D01*
X400888Y188991D01*
X400691Y188663D01*
X400455Y188532D01*
X400061D01*
X399707Y188335D01*
X399471Y187941D01*
X399392Y187482D01*
X399471Y187023D01*
X399668Y186695D01*
X399983Y186498D01*
X400258Y186432D01*
G01X405159D02*
Y190369D01*
X406183Y187089D01*
X407206Y190369D01*
Y186432D01*
G01X408121D02*
Y190369D01*
X409145Y187089D01*
X410169Y190369D01*
Y186432D01*
G01X316450Y192863D02*
X318183Y195750D01*
G01X317317Y196274D02*
Y192337D01*
G01X318183Y192863D02*
X316450Y195750D01*
G01X316135Y194306D02*
X318498D01*
G01X325376Y193519D02*
X325691Y193191D01*
X326046Y192994D01*
X326361D01*
X326676Y193191D01*
X326912Y193519D01*
X327030Y193978D01*
X326951Y194437D01*
X326754Y194831D01*
X326400Y195093D01*
X325928Y195225D01*
X325652Y195487D01*
X325534Y195946D01*
X325613Y196406D01*
X325809Y196734D01*
X326085Y196931D01*
X326361D01*
X326636Y196800D01*
X326872Y196471D01*
G01X328299Y196931D02*
Y194109D01*
X328457Y193519D01*
X328772Y193125D01*
X329165Y192994D01*
X329559Y193125D01*
X329874Y193519D01*
X330031Y194109D01*
Y196931D01*
G01X331340Y192994D02*
Y196931D01*
X332324D01*
X332639Y196734D01*
X332836Y196471D01*
X332915Y195946D01*
X332836Y195422D01*
X332600Y195093D01*
X332324Y194896D01*
X331340D01*
G01X332324D02*
X332915Y192994D01*
G01X334342D02*
Y196931D01*
X335838D01*
G01X335287Y195028D02*
X334342D01*
G01X337068Y192994D02*
X338052Y196931D01*
X339036Y192994D01*
G01X338682Y194372D02*
X337422D01*
G01X341880Y196603D02*
X341644Y196800D01*
X341369Y196931D01*
X341054D01*
X340699Y196734D01*
X340424Y196406D01*
X340227Y196012D01*
X340069Y195356D01*
X340030Y194765D01*
X340109Y194175D01*
X340227Y193781D01*
X340463Y193387D01*
X340739Y193125D01*
X341014Y192994D01*
X341290D01*
X341565Y193125D01*
X341802Y193322D01*
X341998Y193584D01*
G01X344764Y192994D02*
X343189D01*
Y196931D01*
X344764D01*
G01X344134Y195028D02*
X343189D01*
G01X349389Y194306D02*
X350413D01*
G01X354841Y192994D02*
X355825Y196931D01*
X356809Y192994D01*
G01X356455Y194372D02*
X355195D01*
G01X358315Y196931D02*
X359260D01*
G01X358787D02*
Y192994D01*
G01X358315D02*
X359260D01*
G01X360962D02*
Y196931D01*
X361946D01*
X362261Y196734D01*
X362458Y196471D01*
X362537Y195946D01*
X362458Y195422D01*
X362222Y195093D01*
X361946Y194896D01*
X360962D01*
G01X361946D02*
X362537Y192994D01*
G01X367674Y196931D02*
X367359Y196800D01*
X367123Y196471D01*
X366965Y196078D01*
X366847Y195553D01*
X366808Y194962D01*
X366847Y194372D01*
X366965Y193847D01*
X367123Y193453D01*
X367359Y193125D01*
X367674Y192994D01*
X367989Y193125D01*
X368225Y193453D01*
X368383Y193847D01*
X368501Y194372D01*
X368540Y194962D01*
X368501Y195553D01*
X368383Y196078D01*
X368225Y196471D01*
X367989Y196800D01*
X367674Y196931D01*
G01X372575Y192994D02*
Y196931D01*
X373598Y193650D01*
X374622Y196931D01*
Y192994D01*
G01X375537D02*
Y196931D01*
X376561Y193650D01*
X377584Y196931D01*
Y192994D01*
G54D14*
G01X-4567Y-70354D02*
Y-21142D01*
X220859D01*
Y-70354D01*
X-4567D01*
G01Y-54606D02*
X220859D01*
G01X-4567Y-62480D02*
X220859D01*
G01X-4567Y-46732D02*
X220859D01*
G01X0Y0D02*
Y157480D01*
X157480D01*
Y0D01*
X0D01*
G01Y167323D02*
Y175157D01*
G01X103883Y165315D02*
X0D01*
G01X15748Y167776D02*
X0Y165315D01*
X15748Y162854D01*
Y167776D01*
G01X36769Y-54606D02*
Y-70354D01*
G01X127264Y-54606D02*
Y-70354D01*
G01X118007Y165315D02*
X157480D01*
G01X167224Y15748D02*
X169685Y0D01*
X172146Y15748D01*
X167224D01*
G01X172146Y141732D02*
X169685Y157480D01*
X167224Y141732D01*
X172146D01*
G01X157480Y167323D02*
Y175157D01*
G01X141732Y162854D02*
X157480Y165315D01*
X141732Y167776D01*
Y162854D01*
G01X184986Y-54606D02*
Y-70354D01*
G01X167323Y0D02*
X179528D01*
G01X169685Y20394D02*
Y0D01*
G01Y30630D02*
Y157480D01*
G01X167323D02*
X179528D01*
G01X247249Y-7625D02*
Y189414D01*
X307249D01*
Y-7625D01*
X247249D01*
M02*
