G04 ================== begin FILE IDENTIFICATION RECORD ==================*
G04 Layout Name:  ZAHARIA_ANDREI.brd*
G04 Film Name:    SSTOP*
G04 File Format:  Gerber RS274X*
G04 File Origin:  Cadence Allegro 17.2-S025*
G04 Origin Date:  Sun Dec 14 21:38:47 2025*
G04 *
G04 Layer:  REF DES/SILKSCREEN_TOP*
G04 Layer:  PACKAGE GEOMETRY/SILKSCREEN_TOP*
G04 Layer:  COMPONENT VALUE/SILKSCREEN_TOP*
G04 Layer:  BOARD GEOMETRY/SILKSCREEN_TOP*
G04 *
G04 Offset:    (0.0000 0.0000)*
G04 Mirror:    No*
G04 Mode:      Positive*
G04 Rotation:  0*
G04 FullContactRelief:  No*
G04 UndefLineWidth:     0.1250*
G04 ================== end FILE IDENTIFICATION RECORD ====================*
%FSLAX25Y25*MOIN*%
%IR0*IPPOS*OFA0.00000B0.00000*MIA0B0*SFA1.00000B1.00000*%
%ADD10C,.005906*%
%ADD11C,.006*%
G75*
%LPD*%
G75*
G54D10*
G01X6929Y9764D02*
X8425D01*
X6929Y5827D01*
X8425D01*
G01X9655D02*
X10639Y9764D01*
X11624Y5827D01*
G01X11269Y7205D02*
X10009D01*
G01X12775Y5827D02*
Y9764D01*
G01X14428D02*
Y5827D01*
G01Y7795D02*
X12775D01*
G01X15580Y5827D02*
X16564Y9764D01*
X17548Y5827D01*
G01X17194Y7205D02*
X15934D01*
G01X18739Y5827D02*
Y9764D01*
X19723D01*
X20038Y9567D01*
X20235Y9304D01*
X20313Y8780D01*
X20235Y8255D01*
X19998Y7926D01*
X19723Y7730D01*
X18739D01*
G01X19723D02*
X20313Y5827D01*
G01X22016Y9764D02*
X22961D01*
G01X22488D02*
Y5827D01*
G01X22016D02*
X22961D01*
G01X24466D02*
X25450Y9764D01*
X26435Y5827D01*
G01X26080Y7205D02*
X24820D01*
G01X30391Y5827D02*
X31375Y9764D01*
X32359Y5827D01*
G01X32005Y7205D02*
X30745D01*
G01X33431Y5827D02*
Y9764D01*
X35243Y5827D01*
Y9764D01*
G01X36433Y5827D02*
Y9764D01*
X37220D01*
X37535Y9567D01*
X37772Y9304D01*
X37969Y8911D01*
X38126Y8451D01*
X38165Y7795D01*
X38126Y7139D01*
X37969Y6680D01*
X37772Y6286D01*
X37535Y6024D01*
X37220Y5827D01*
X36433D01*
G01X39474D02*
Y9764D01*
X40458D01*
X40773Y9567D01*
X40970Y9304D01*
X41049Y8780D01*
X40970Y8255D01*
X40734Y7926D01*
X40458Y7730D01*
X39474D01*
G01X40458D02*
X41049Y5827D01*
G01X44011D02*
X42436D01*
Y9764D01*
X44011D01*
G01X43381Y7861D02*
X42436D01*
G01X45713Y9764D02*
X46658D01*
G01X46186D02*
Y5827D01*
G01X45713D02*
X46658D01*
G01X52583D02*
Y9764D01*
X51126Y6942D01*
X53094D01*
G01X54206Y6614D02*
X54443Y6155D01*
X54757Y5893D01*
X55112Y5827D01*
X55427Y5893D01*
X55742Y6220D01*
X55939Y6614D01*
X55978Y7008D01*
X55899Y7467D01*
X55624Y7795D01*
X55348Y7926D01*
X54994D01*
G01X55348D02*
X55584Y8123D01*
X55781Y8451D01*
X55860Y8845D01*
X55781Y9239D01*
X55584Y9567D01*
X55230Y9764D01*
X54876Y9698D01*
X54521Y9436D01*
G01X58507Y5827D02*
Y9764D01*
X57050Y6942D01*
X59019D01*
G01X60131Y5827D02*
Y9764D01*
X60918D01*
X61233Y9567D01*
X61469Y9304D01*
X61666Y8911D01*
X61824Y8451D01*
X61863Y7795D01*
X61824Y7139D01*
X61666Y6680D01*
X61469Y6286D01*
X61233Y6024D01*
X60918Y5827D01*
X60131D01*
G01X67787Y9436D02*
X67551Y9633D01*
X67276Y9764D01*
X66961D01*
X66606Y9567D01*
X66331Y9239D01*
X66134Y8845D01*
X65976Y8189D01*
X65937Y7598D01*
X66016Y7008D01*
X66134Y6614D01*
X66370Y6220D01*
X66646Y5958D01*
X66921Y5827D01*
X67197D01*
X67472Y5958D01*
X67709Y6155D01*
X67906Y6417D01*
G01X70671Y5827D02*
X69096D01*
Y9764D01*
X70671D01*
G01X70041Y7861D02*
X69096D01*
G01X72098Y5827D02*
Y9764D01*
X73594D01*
G01X73043Y7861D02*
X72098D01*
G01X75296Y7139D02*
X76320D01*
G01X77983Y5827D02*
Y9764D01*
X78928D01*
X79243Y9567D01*
X79479Y9107D01*
X79557Y8583D01*
X79479Y8058D01*
X79282Y7664D01*
X78928Y7467D01*
X77983D01*
G01X81181Y5827D02*
Y8451D01*
G01Y7926D02*
X81378Y8189D01*
X81575Y8386D01*
X81850Y8451D01*
X82047Y8386D01*
X82283Y8189D01*
G01X86909Y9107D02*
X87145Y9501D01*
X87420Y9698D01*
X87735Y9764D01*
X88129Y9633D01*
X88405Y9304D01*
X88483Y8911D01*
X88444Y8517D01*
X88287Y8189D01*
X87499Y7533D01*
X87145Y7074D01*
X86909Y6417D01*
X86830Y5827D01*
X88483D01*
G01X90619Y9764D02*
X90304Y9633D01*
X90068Y9304D01*
X89910Y8911D01*
X89792Y8386D01*
X89753Y7795D01*
X89792Y7205D01*
X89910Y6680D01*
X90068Y6286D01*
X90304Y5958D01*
X90619Y5827D01*
X90934Y5958D01*
X91170Y6286D01*
X91328Y6680D01*
X91446Y7205D01*
X91485Y7795D01*
X91446Y8386D01*
X91328Y8911D01*
X91170Y9304D01*
X90934Y9633D01*
X90619Y9764D01*
G01X92833Y9107D02*
X93069Y9501D01*
X93345Y9698D01*
X93660Y9764D01*
X94054Y9633D01*
X94329Y9304D01*
X94408Y8911D01*
X94369Y8517D01*
X94211Y8189D01*
X93424Y7533D01*
X93069Y7074D01*
X92833Y6417D01*
X92754Y5827D01*
X94408D01*
G01X95677Y6417D02*
X95913Y6089D01*
X96189Y5893D01*
X96543Y5827D01*
X96898Y5958D01*
X97173Y6220D01*
X97370Y6680D01*
X97409Y7205D01*
X97331Y7730D01*
X97134Y8058D01*
X96858Y8320D01*
X96583Y8386D01*
X96307Y8320D01*
X95953Y8058D01*
X96071Y9764D01*
X97134D01*
G01X98994Y7139D02*
X100017D01*
G01X101720Y9107D02*
X101956Y9501D01*
X102231Y9698D01*
X102546Y9764D01*
X102940Y9633D01*
X103216Y9304D01*
X103294Y8911D01*
X103255Y8517D01*
X103098Y8189D01*
X102310Y7533D01*
X101956Y7074D01*
X101720Y6417D01*
X101641Y5827D01*
X103294D01*
G01X105430Y9764D02*
X105115Y9633D01*
X104879Y9304D01*
X104721Y8911D01*
X104603Y8386D01*
X104564Y7795D01*
X104603Y7205D01*
X104721Y6680D01*
X104879Y6286D01*
X105115Y5958D01*
X105430Y5827D01*
X105745Y5958D01*
X105981Y6286D01*
X106139Y6680D01*
X106257Y7205D01*
X106296Y7795D01*
X106257Y8386D01*
X106139Y8911D01*
X105981Y9304D01*
X105745Y9633D01*
X105430Y9764D01*
G01X107644Y9107D02*
X107880Y9501D01*
X108156Y9698D01*
X108471Y9764D01*
X108865Y9633D01*
X109140Y9304D01*
X109219Y8911D01*
X109180Y8517D01*
X109022Y8189D01*
X108235Y7533D01*
X107880Y7074D01*
X107644Y6417D01*
X107565Y5827D01*
X109219D01*
G01X110606Y7467D02*
X110882Y7926D01*
X111118Y8189D01*
X111433Y8320D01*
X111709Y8189D01*
X111906Y7926D01*
X112063Y7533D01*
X112102Y7074D01*
X112063Y6680D01*
X111906Y6286D01*
X111669Y5958D01*
X111394Y5827D01*
X111079Y5958D01*
X110803Y6352D01*
X110646Y6942D01*
X110606Y7598D01*
X110685Y8451D01*
X110803Y8911D01*
X111000Y9370D01*
X111276Y9698D01*
X111551Y9764D01*
X111827Y9633D01*
X112024Y9304D01*
G01X9882Y83307D02*
X10079Y82913D01*
X10315Y82651D01*
X10591Y82520D01*
X10906Y82651D01*
X11142Y82913D01*
X11378Y83307D01*
X11457Y83832D01*
Y86457D01*
G01X14183Y85800D02*
X14420Y86194D01*
X14695Y86391D01*
X15010Y86457D01*
X15404Y86326D01*
X15680Y85997D01*
X15758Y85604D01*
X15719Y85210D01*
X15561Y84882D01*
X14774Y84226D01*
X14420Y83767D01*
X14183Y83110D01*
X14105Y82520D01*
X15758D01*
G01X32835Y20394D02*
Y24331D01*
X33819D01*
X34134Y24134D01*
X34331Y23871D01*
X34409Y23346D01*
X34331Y22822D01*
X34094Y22493D01*
X33819Y22296D01*
X32835D01*
G01X33819D02*
X34409Y20394D01*
G01X37136Y22034D02*
X37412Y22493D01*
X37648Y22756D01*
X37963Y22887D01*
X38239Y22756D01*
X38435Y22493D01*
X38593Y22100D01*
X38632Y21641D01*
X38593Y21247D01*
X38435Y20853D01*
X38199Y20525D01*
X37924Y20394D01*
X37609Y20525D01*
X37333Y20919D01*
X37176Y21509D01*
X37136Y22165D01*
X37215Y23018D01*
X37333Y23478D01*
X37530Y23937D01*
X37806Y24265D01*
X38081Y24331D01*
X38357Y24200D01*
X38554Y23871D01*
G01X38100Y38209D02*
X41329D01*
G01X33740Y43917D02*
Y40276D01*
G01X42579Y43819D02*
Y43770D01*
X45807D01*
Y40128D01*
G01X32362Y56654D02*
Y60591D01*
X33346D01*
X33661Y60394D01*
X33858Y60131D01*
X33937Y59606D01*
X33858Y59081D01*
X33622Y58753D01*
X33346Y58556D01*
X32362D01*
G01X33346D02*
X33937Y56654D01*
G01X37412D02*
X37687Y56719D01*
X38002Y56916D01*
X38199Y57244D01*
X38278Y57704D01*
X38199Y58163D01*
X37963Y58556D01*
X37609Y58753D01*
X37215D01*
X36979Y58885D01*
X36782Y59213D01*
X36703Y59672D01*
X36821Y60131D01*
X37097Y60459D01*
X37412Y60591D01*
X37727Y60459D01*
X38002Y60131D01*
X38120Y59672D01*
X38042Y59213D01*
X37845Y58885D01*
X37609Y58753D01*
X37215D01*
X36861Y58556D01*
X36624Y58163D01*
X36546Y57704D01*
X36624Y57244D01*
X36821Y56916D01*
X37136Y56719D01*
X37412Y56654D01*
G01X47953Y42795D02*
X47638Y42861D01*
X47362Y43123D01*
X47126Y43517D01*
X46969Y43976D01*
X46890Y44501D01*
Y45026D01*
X46969Y45551D01*
X47126Y46011D01*
X47362Y46404D01*
X47638Y46667D01*
X47953Y46732D01*
X48268Y46667D01*
X48543Y46404D01*
X48780Y46011D01*
X48937Y45551D01*
X49016Y45026D01*
Y44501D01*
X48937Y43976D01*
X48780Y43517D01*
X48543Y43123D01*
X48268Y42861D01*
X47953Y42795D01*
G01X48268Y43845D02*
X48740Y42795D01*
G01X50749Y43583D02*
X50985Y43123D01*
X51300Y42861D01*
X51654Y42795D01*
X51969Y42861D01*
X52284Y43189D01*
X52481Y43583D01*
X52520Y43976D01*
X52442Y44435D01*
X52166Y44764D01*
X51891Y44895D01*
X51536D01*
G01X51891D02*
X52127Y45092D01*
X52324Y45420D01*
X52402Y45814D01*
X52324Y46207D01*
X52127Y46535D01*
X51772Y46732D01*
X51418Y46667D01*
X51064Y46404D01*
G01X33809Y43839D02*
X37037D01*
G01X26831Y100069D02*
Y103297D01*
G01X26752Y100000D02*
X30394D01*
G01X46801Y81831D02*
X50030D01*
G01X46732Y81909D02*
Y78268D01*
G01X36417Y84134D02*
X36102Y84200D01*
X35827Y84462D01*
X35591Y84856D01*
X35433Y85315D01*
X35354Y85840D01*
Y86365D01*
X35433Y86890D01*
X35591Y87349D01*
X35827Y87743D01*
X36102Y88005D01*
X36417Y88071D01*
X36732Y88005D01*
X37008Y87743D01*
X37244Y87349D01*
X37402Y86890D01*
X37480Y86365D01*
Y85840D01*
X37402Y85315D01*
X37244Y84856D01*
X37008Y84462D01*
X36732Y84200D01*
X36417Y84134D01*
G01X36732Y85184D02*
X37205Y84134D01*
G01X40080D02*
Y88071D01*
X39607Y87283D01*
G01Y84134D02*
X40552D01*
G01X29872Y76476D02*
X33100D01*
G01X25581Y82106D02*
X28809D01*
G01X25512Y82185D02*
Y78543D01*
G01X34350Y82087D02*
Y82037D01*
X37579D01*
Y78396D01*
G01X44252Y114134D02*
X43937Y114200D01*
X43661Y114462D01*
X43425Y114856D01*
X43268Y115315D01*
X43189Y115840D01*
Y116365D01*
X43268Y116890D01*
X43425Y117349D01*
X43661Y117743D01*
X43937Y118005D01*
X44252Y118071D01*
X44567Y118005D01*
X44843Y117743D01*
X45079Y117349D01*
X45236Y116890D01*
X45315Y116365D01*
Y115840D01*
X45236Y115315D01*
X45079Y114856D01*
X44843Y114462D01*
X44567Y114200D01*
X44252Y114134D01*
G01X44567Y115184D02*
X45039Y114134D01*
G01X47048Y114724D02*
X47284Y114396D01*
X47560Y114200D01*
X47914Y114134D01*
X48269Y114265D01*
X48544Y114528D01*
X48741Y114987D01*
X48780Y115512D01*
X48702Y116037D01*
X48505Y116365D01*
X48229Y116627D01*
X47954Y116693D01*
X47678Y116627D01*
X47324Y116365D01*
X47442Y118071D01*
X48505D01*
G01X45541Y108681D02*
X48770D01*
G01X45472Y108760D02*
Y105118D01*
G01X23661Y113898D02*
X23346Y113963D01*
X23071Y114226D01*
X22835Y114619D01*
X22677Y115079D01*
X22598Y115604D01*
Y116129D01*
X22677Y116654D01*
X22835Y117113D01*
X23071Y117507D01*
X23346Y117769D01*
X23661Y117835D01*
X23976Y117769D01*
X24252Y117507D01*
X24488Y117113D01*
X24646Y116654D01*
X24724Y116129D01*
Y115604D01*
X24646Y115079D01*
X24488Y114619D01*
X24252Y114226D01*
X23976Y113963D01*
X23661Y113898D01*
G01X23976Y114948D02*
X24449Y113898D01*
G01X27796D02*
Y117835D01*
X26339Y115013D01*
X28308D01*
G01X32461Y104360D02*
Y107589D01*
G01X26850Y108839D02*
X26900D01*
Y112067D01*
X30541D01*
G01X37598Y146378D02*
Y150315D01*
X38583D01*
X38898Y150118D01*
X39094Y149856D01*
X39173Y149331D01*
X39094Y148806D01*
X38858Y148478D01*
X38583Y148281D01*
X37598D01*
G01X38583D02*
X39173Y146378D01*
G01X42648D02*
Y150315D01*
X42176Y149528D01*
G01Y146378D02*
X43120D01*
G01X60984Y20591D02*
Y24528D01*
X61772D01*
X62087Y24331D01*
X62323Y24068D01*
X62520Y23674D01*
X62677Y23215D01*
X62717Y22559D01*
X62677Y21903D01*
X62520Y21444D01*
X62323Y21050D01*
X62087Y20787D01*
X61772Y20591D01*
X60984D01*
G01X65246Y21378D02*
X65483Y20919D01*
X65798Y20656D01*
X66152Y20591D01*
X66467Y20656D01*
X66782Y20984D01*
X66979Y21378D01*
X67018Y21772D01*
X66939Y22231D01*
X66664Y22559D01*
X66388Y22690D01*
X66034D01*
G01X66388D02*
X66624Y22887D01*
X66821Y23215D01*
X66900Y23609D01*
X66821Y24003D01*
X66624Y24331D01*
X66270Y24528D01*
X65916Y24462D01*
X65561Y24200D01*
G01X70354Y81890D02*
Y85827D01*
X71339D01*
X71654Y85630D01*
X71850Y85367D01*
X71929Y84843D01*
X71850Y84318D01*
X71614Y83989D01*
X71339Y83793D01*
X70354D01*
G01X71339D02*
X71929Y81890D01*
G01X75876D02*
Y85827D01*
X74420Y83005D01*
X76388D01*
G01X58031Y83543D02*
X57717Y83609D01*
X57441Y83871D01*
X57205Y84265D01*
X57047Y84724D01*
X56969Y85249D01*
Y85774D01*
X57047Y86299D01*
X57205Y86759D01*
X57441Y87152D01*
X57717Y87415D01*
X58031Y87480D01*
X58346Y87415D01*
X58622Y87152D01*
X58858Y86759D01*
X59016Y86299D01*
X59094Y85774D01*
Y85249D01*
X59016Y84724D01*
X58858Y84265D01*
X58622Y83871D01*
X58346Y83609D01*
X58031Y83543D01*
G01X58346Y84593D02*
X58819Y83543D01*
G01X60946Y86824D02*
X61182Y87218D01*
X61457Y87415D01*
X61772Y87480D01*
X62166Y87349D01*
X62442Y87021D01*
X62520Y86627D01*
X62481Y86233D01*
X62324Y85906D01*
X61536Y85249D01*
X61182Y84790D01*
X60946Y84134D01*
X60867Y83543D01*
X62520D01*
G01X51093Y76201D02*
X54321D01*
G01X55571Y81811D02*
Y81762D01*
X58799D01*
Y78120D01*
G01X73150Y122323D02*
Y126260D01*
X74134D01*
X74449Y126063D01*
X74646Y125800D01*
X74724Y125276D01*
X74646Y124751D01*
X74409Y124422D01*
X74134Y124226D01*
X73150D01*
G01X74134D02*
X74724Y122323D01*
G01X78199D02*
Y126260D01*
X77727Y125472D01*
G01Y122323D02*
X78672D01*
G01X82461Y126260D02*
X82146Y126129D01*
X81910Y125800D01*
X81753Y125407D01*
X81635Y124882D01*
X81595Y124291D01*
X81635Y123701D01*
X81753Y123176D01*
X81910Y122782D01*
X82146Y122454D01*
X82461Y122323D01*
X82776Y122454D01*
X83013Y122782D01*
X83170Y123176D01*
X83288Y123701D01*
X83328Y124291D01*
X83288Y124882D01*
X83170Y125407D01*
X83013Y125800D01*
X82776Y126129D01*
X82461Y126260D01*
G01X49833Y103051D02*
X53061D01*
G01X54311Y108661D02*
Y108612D01*
X57539D01*
Y104970D01*
G01X55709Y146614D02*
Y150551D01*
X56693D01*
X57008Y150354D01*
X57205Y150092D01*
X57283Y149567D01*
X57205Y149042D01*
X56969Y148714D01*
X56693Y148517D01*
X55709D01*
G01X56693D02*
X57283Y146614D01*
G01X60010Y149895D02*
X60246Y150289D01*
X60522Y150485D01*
X60837Y150551D01*
X61231Y150420D01*
X61506Y150092D01*
X61585Y149698D01*
X61546Y149304D01*
X61388Y148976D01*
X60601Y148320D01*
X60246Y147861D01*
X60010Y147205D01*
X59931Y146614D01*
X61585D01*
G01X95984Y19724D02*
Y23661D01*
X96969D01*
X97283Y23465D01*
X97480Y23202D01*
X97559Y22677D01*
X97480Y22152D01*
X97244Y21824D01*
X96969Y21627D01*
X95984D01*
G01X96969D02*
X97559Y19724D01*
G01X100955D02*
X101034Y20578D01*
X101152Y21299D01*
X101309Y21956D01*
X101506Y22677D01*
X101821Y23661D01*
X100246D01*
G01X78307Y40315D02*
Y44252D01*
X79291D01*
X79606Y44055D01*
X79803Y43793D01*
X79882Y43268D01*
X79803Y42743D01*
X79567Y42415D01*
X79291Y42218D01*
X78307D01*
G01X79291D02*
X79882Y40315D01*
G01X82687Y40774D02*
X82963Y40446D01*
X83278Y40315D01*
X83593Y40446D01*
X83869Y40840D01*
X84065Y41430D01*
X84144Y42021D01*
Y42743D01*
X84065Y43333D01*
X83869Y43858D01*
X83632Y44121D01*
X83357Y44252D01*
X83042Y44121D01*
X82806Y43858D01*
X82648Y43465D01*
X82569Y42939D01*
X82648Y42480D01*
X82845Y42021D01*
X83081Y41758D01*
X83357Y41693D01*
X83672Y41824D01*
X83908Y42152D01*
X84144Y42743D01*
G01X101486Y39272D02*
X104715D01*
G01X97717Y71811D02*
Y68989D01*
X97874Y68399D01*
X98189Y68005D01*
X98583Y67874D01*
X98976Y68005D01*
X99291Y68399D01*
X99449Y68989D01*
Y71811D01*
G01X102097Y71155D02*
X102333Y71548D01*
X102609Y71745D01*
X102924Y71811D01*
X103317Y71680D01*
X103593Y71352D01*
X103672Y70958D01*
X103632Y70564D01*
X103475Y70236D01*
X102687Y69580D01*
X102333Y69121D01*
X102097Y68465D01*
X102018Y67874D01*
X103672D01*
G01X92756Y46811D02*
X92441Y46877D01*
X92165Y47139D01*
X91929Y47533D01*
X91772Y47992D01*
X91693Y48517D01*
Y49042D01*
X91772Y49567D01*
X91929Y50026D01*
X92165Y50420D01*
X92441Y50682D01*
X92756Y50748D01*
X93071Y50682D01*
X93346Y50420D01*
X93583Y50026D01*
X93740Y49567D01*
X93819Y49042D01*
Y48517D01*
X93740Y47992D01*
X93583Y47533D01*
X93346Y47139D01*
X93071Y46877D01*
X92756Y46811D01*
G01X93071Y47861D02*
X93543Y46811D01*
G01X95749Y47270D02*
X96024Y46942D01*
X96339Y46811D01*
X96654Y46942D01*
X96930Y47336D01*
X97127Y47926D01*
X97206Y48517D01*
Y49239D01*
X97127Y49830D01*
X96930Y50354D01*
X96694Y50617D01*
X96418Y50748D01*
X96103Y50617D01*
X95867Y50354D01*
X95709Y49961D01*
X95631Y49435D01*
X95709Y48976D01*
X95906Y48517D01*
X96143Y48254D01*
X96418Y48189D01*
X96733Y48320D01*
X96969Y48648D01*
X97206Y49239D01*
G01X97195Y44902D02*
X100423D01*
G01X97126Y44980D02*
Y41339D01*
G01X105965Y44882D02*
Y44833D01*
X109193D01*
Y41191D01*
G01X89173Y76063D02*
Y80000D01*
X90157D01*
X90472Y79803D01*
X90669Y79541D01*
X90748Y79016D01*
X90669Y78491D01*
X90433Y78163D01*
X90157Y77966D01*
X89173D01*
G01X90157D02*
X90748Y76063D01*
G01X93357Y76654D02*
X93593Y76326D01*
X93869Y76129D01*
X94223Y76063D01*
X94577Y76194D01*
X94853Y76457D01*
X95050Y76916D01*
X95089Y77441D01*
X95010Y77966D01*
X94813Y78294D01*
X94538Y78556D01*
X94262Y78622D01*
X93987Y78556D01*
X93632Y78294D01*
X93750Y80000D01*
X94813D01*
G01X96496Y108727D02*
X96260Y108924D01*
X95984Y109055D01*
X95669D01*
X95315Y108858D01*
X95039Y108530D01*
X94843Y108137D01*
X94685Y107480D01*
X94646Y106890D01*
X94724Y106299D01*
X94843Y105906D01*
X95079Y105512D01*
X95354Y105249D01*
X95630Y105118D01*
X95906D01*
X96181Y105249D01*
X96417Y105446D01*
X96614Y105709D01*
G01X99892Y105118D02*
Y109055D01*
X99420Y108268D01*
G01Y105118D02*
X100365D01*
G01X107520Y122087D02*
X107205Y122152D01*
X106929Y122415D01*
X106693Y122808D01*
X106535Y123268D01*
X106457Y123793D01*
Y124318D01*
X106535Y124843D01*
X106693Y125302D01*
X106929Y125696D01*
X107205Y125958D01*
X107520Y126024D01*
X107835Y125958D01*
X108110Y125696D01*
X108346Y125302D01*
X108504Y124843D01*
X108583Y124318D01*
Y123793D01*
X108504Y123268D01*
X108346Y122808D01*
X108110Y122415D01*
X107835Y122152D01*
X107520Y122087D01*
G01X107835Y123137D02*
X108307Y122087D01*
G01X110434Y123727D02*
X110709Y124186D01*
X110946Y124449D01*
X111261Y124580D01*
X111536Y124449D01*
X111733Y124186D01*
X111891Y123793D01*
X111930Y123333D01*
X111891Y122940D01*
X111733Y122546D01*
X111497Y122218D01*
X111221Y122087D01*
X110906Y122218D01*
X110631Y122611D01*
X110473Y123202D01*
X110434Y123858D01*
X110513Y124711D01*
X110631Y125170D01*
X110828Y125630D01*
X111103Y125958D01*
X111379Y126024D01*
X111654Y125893D01*
X111851Y125564D01*
G01X97628Y115650D02*
X100856D01*
G01X93337Y121280D02*
X96565D01*
G01X93268Y121358D02*
Y117717D01*
G01X102106Y121260D02*
Y121211D01*
X105335D01*
Y117569D01*
G01X77992Y146614D02*
Y150551D01*
X78780D01*
X79094Y150354D01*
X79331Y150092D01*
X79528Y149698D01*
X79685Y149239D01*
X79724Y148583D01*
X79685Y147926D01*
X79528Y147467D01*
X79331Y147073D01*
X79094Y146811D01*
X78780Y146614D01*
X77992D01*
G01X82254Y147205D02*
X82491Y146877D01*
X82766Y146680D01*
X83120Y146614D01*
X83475Y146745D01*
X83750Y147008D01*
X83947Y147467D01*
X83987Y147992D01*
X83908Y148517D01*
X83711Y148845D01*
X83435Y149107D01*
X83160Y149173D01*
X82884Y149107D01*
X82530Y148845D01*
X82648Y150551D01*
X83711D01*
G01X123740Y20709D02*
X123937Y20315D01*
X124173Y20052D01*
X124449Y19921D01*
X124764Y20052D01*
X125000Y20315D01*
X125236Y20709D01*
X125315Y21233D01*
Y23858D01*
G01X129262Y19921D02*
Y23858D01*
X127806Y21037D01*
X129774D01*
G01X130709Y42362D02*
Y46299D01*
X131693D01*
X132008Y46102D01*
X132205Y45840D01*
X132283Y45315D01*
X132205Y44790D01*
X131969Y44462D01*
X131693Y44265D01*
X130709D01*
G01X131693D02*
X132283Y42362D01*
G01X134971Y46299D02*
Y42362D01*
X136546D01*
G01X140020D02*
X139706Y42428D01*
X139430Y42690D01*
X139194Y43084D01*
X139036Y43543D01*
X138957Y44068D01*
Y44593D01*
X139036Y45118D01*
X139194Y45578D01*
X139430Y45971D01*
X139706Y46233D01*
X140020Y46299D01*
X140335Y46233D01*
X140611Y45971D01*
X140847Y45578D01*
X141005Y45118D01*
X141083Y44593D01*
Y44068D01*
X141005Y43543D01*
X140847Y43084D01*
X140611Y42690D01*
X140335Y42428D01*
X140020Y42362D01*
G01X143298D02*
X144283Y46299D01*
X145267Y42362D01*
G01X144913Y43740D02*
X143653D01*
G01X147679Y42362D02*
Y46299D01*
X148466D01*
X148781Y46102D01*
X149017Y45840D01*
X149214Y45446D01*
X149372Y44987D01*
X149411Y44331D01*
X149372Y43674D01*
X149214Y43215D01*
X149017Y42821D01*
X148781Y42559D01*
X148466Y42362D01*
X147679D01*
G01X129685Y63386D02*
X129370Y63452D01*
X129094Y63714D01*
X128858Y64107D01*
X128701Y64567D01*
X128622Y65092D01*
Y65617D01*
X128701Y66142D01*
X128858Y66601D01*
X129094Y66995D01*
X129370Y67257D01*
X129685Y67323D01*
X130000Y67257D01*
X130276Y66995D01*
X130512Y66601D01*
X130669Y66142D01*
X130748Y65617D01*
Y65092D01*
X130669Y64567D01*
X130512Y64107D01*
X130276Y63714D01*
X130000Y63452D01*
X129685Y63386D01*
G01X130000Y64436D02*
X130472Y63386D01*
G01X133347D02*
Y67323D01*
X132875Y66535D01*
G01Y63386D02*
X133820D01*
G01X137009Y67323D02*
X136694Y67192D01*
X136458Y66863D01*
X136301Y66470D01*
X136183Y65945D01*
X136143Y65354D01*
X136183Y64764D01*
X136301Y64239D01*
X136458Y63845D01*
X136694Y63517D01*
X137009Y63386D01*
X137324Y63517D01*
X137561Y63845D01*
X137718Y64239D01*
X137836Y64764D01*
X137876Y65354D01*
X137836Y65945D01*
X137718Y66470D01*
X137561Y66863D01*
X137324Y67192D01*
X137009Y67323D01*
G01X123848Y52106D02*
X127077D01*
G01X119557Y57736D02*
X122785D01*
G01X119488Y57815D02*
Y54173D01*
G01X128327Y57717D02*
Y57667D01*
X131555D01*
Y54026D01*
G01X127362Y82087D02*
X127559Y81693D01*
X127795Y81430D01*
X128071Y81299D01*
X128386Y81430D01*
X128622Y81693D01*
X128858Y82087D01*
X128937Y82611D01*
Y85236D01*
G01X132412Y81299D02*
Y85236D01*
X131939Y84449D01*
G01Y81299D02*
X132884D01*
G01X116969Y104843D02*
Y102021D01*
X117126Y101430D01*
X117441Y101037D01*
X117835Y100906D01*
X118228Y101037D01*
X118543Y101430D01*
X118701Y102021D01*
Y104843D01*
G01X122097Y100906D02*
Y104843D01*
X121624Y104055D01*
G01Y100906D02*
X122569D01*
G01X134567Y129409D02*
X134764Y129016D01*
X135000Y128753D01*
X135276Y128622D01*
X135591Y128753D01*
X135827Y129016D01*
X136063Y129409D01*
X136142Y129934D01*
Y132559D01*
G01X138750Y129409D02*
X138987Y128950D01*
X139302Y128688D01*
X139656Y128622D01*
X139971Y128688D01*
X140286Y129016D01*
X140483Y129409D01*
X140522Y129803D01*
X140443Y130262D01*
X140168Y130591D01*
X139892Y130722D01*
X139538D01*
G01X139892D02*
X140128Y130919D01*
X140325Y131246D01*
X140404Y131641D01*
X140325Y132034D01*
X140128Y132362D01*
X139774Y132559D01*
X139420Y132493D01*
X139065Y132231D01*
G01X131142Y120394D02*
X130827Y120459D01*
X130551Y120722D01*
X130315Y121115D01*
X130157Y121575D01*
X130079Y122100D01*
Y122625D01*
X130157Y123150D01*
X130315Y123609D01*
X130551Y124003D01*
X130827Y124265D01*
X131142Y124331D01*
X131457Y124265D01*
X131732Y124003D01*
X131969Y123609D01*
X132126Y123150D01*
X132205Y122625D01*
Y122100D01*
X132126Y121575D01*
X131969Y121115D01*
X131732Y120722D01*
X131457Y120459D01*
X131142Y120394D01*
G01X131457Y121444D02*
X131929Y120394D01*
G01X134804D02*
Y124331D01*
X134331Y123543D01*
G01Y120394D02*
X135276D01*
G01X138466D02*
Y124331D01*
X137994Y123543D01*
G01Y120394D02*
X138939D01*
G01X124085Y112894D02*
X127313D01*
G01X119793Y118524D02*
X123022D01*
G01X119724Y118602D02*
Y114961D01*
G01X128563Y118504D02*
Y118455D01*
X131791D01*
Y114813D01*
G01X108780Y150669D02*
Y147848D01*
X108937Y147257D01*
X109252Y146863D01*
X109646Y146732D01*
X110039Y146863D01*
X110354Y147257D01*
X110512Y147848D01*
Y150669D01*
G01X113042Y147520D02*
X113278Y147060D01*
X113593Y146798D01*
X113947Y146732D01*
X114262Y146798D01*
X114577Y147126D01*
X114774Y147520D01*
X114813Y147913D01*
X114735Y148372D01*
X114459Y148701D01*
X114183Y148832D01*
X113829D01*
G01X114183D02*
X114420Y149029D01*
X114617Y149357D01*
X114695Y149751D01*
X114617Y150144D01*
X114420Y150472D01*
X114065Y150669D01*
X113711Y150604D01*
X113357Y150341D01*
G54D11*
G01X5138Y46226D02*
X20138D01*
G01X5138Y80726D02*
Y46226D01*
G01X20138Y80726D02*
X5138D01*
G01X47884Y13720D02*
X40384D01*
G01D02*
Y29720D01*
G01D02*
X47884D01*
G01X20138Y46226D02*
Y80726D01*
G01X31152Y63814D02*
Y47814D01*
G01D02*
X23652D01*
G01D02*
Y63814D01*
G01D02*
X31152D01*
G01X37333Y145743D02*
Y129743D01*
G01D02*
X29833D01*
G01D02*
Y145743D01*
G01D02*
X37333D01*
G01X68874Y14033D02*
Y29033D01*
G01D02*
X76874D01*
G01D02*
Y14033D01*
G01D02*
X68874D01*
G01X47884Y29720D02*
Y13720D01*
G01X76545Y50271D02*
Y34271D01*
G01D02*
X69045D01*
G01D02*
Y50271D01*
G01X76506Y80271D02*
Y64271D01*
G01D02*
X69006D01*
G01D02*
Y80271D01*
G01X69045Y50271D02*
X76545D01*
G01X69006Y80271D02*
X76506D01*
G01X55325Y145861D02*
Y129861D01*
G01D02*
X47825D01*
G01D02*
Y145861D01*
G01X76624Y119759D02*
Y103759D01*
G01D02*
X69124D01*
G01D02*
Y119759D01*
G01D02*
X76624D01*
G01X68913Y130687D02*
Y145687D01*
G01D02*
X76913D01*
G01D02*
Y130687D01*
G01D02*
X68913D01*
G01X47825Y145861D02*
X55325D01*
G01X111033Y13444D02*
X103533D01*
G01D02*
Y29444D01*
G01D02*
X111033D01*
G01X109583Y63756D02*
X105283D01*
G01D02*
Y79556D01*
G01X96517Y103278D02*
Y95778D01*
G01D02*
X80517D01*
G01D02*
Y103278D01*
G01X83351Y88986D02*
X99351D01*
G01D02*
Y81486D01*
G01D02*
X83351D01*
G01D02*
Y88986D01*
G01X109504Y90567D02*
X105204D01*
G01D02*
Y106367D01*
G01X105283Y79556D02*
X115583D01*
G01X80517Y103278D02*
X96517D01*
G01X105204Y106367D02*
X115504D01*
G01X108418Y130291D02*
X104118D01*
G01D02*
X103268Y129441D01*
G01D02*
X102418Y130291D01*
G01D02*
X98118D01*
G01D02*
Y146091D01*
G01D02*
X108418D01*
G01X115495Y41004D02*
Y26004D01*
G01D02*
X149995D01*
G01X111033Y29444D02*
Y13444D01*
G01X149995Y41004D02*
X115495D01*
G01X115583Y79556D02*
Y63756D01*
G01D02*
X111283D01*
G01D02*
X110433Y62906D01*
G01D02*
X109583Y63756D01*
G01X134390Y72092D02*
X149390D01*
G01X134390Y106592D02*
Y72092D01*
G01X115504Y106367D02*
Y90567D01*
G01D02*
X111204D01*
G01D02*
X110354Y89717D01*
G01D02*
X109504Y90567D01*
G01X149390Y106592D02*
X134390D01*
G01X108418Y146091D02*
Y130291D01*
G01X152160Y149705D02*
X117660D01*
G01D02*
Y134705D01*
G01D02*
X152160D01*
G01X149995Y26004D02*
Y41004D01*
G01X148317Y64877D02*
Y48877D01*
G01D02*
X140817D01*
G01D02*
Y64877D01*
G01D02*
X148317D01*
G01X149390Y72092D02*
Y106592D01*
G01X152160Y134705D02*
Y149705D01*
M02*
